{
	"patcher" : 	{
		"fileversion" : 1,
		"appversion" : 		{
			"major" : 7,
			"minor" : 3,
			"revision" : 1,
			"architecture" : "x86",
			"modernui" : 1
		}
,
		"rect" : [ 34.0, 79.0, 1372.0, 783.0 ],
		"bglocked" : 0,
		"openinpresentation" : 0,
		"default_fontsize" : 12.0,
		"default_fontface" : 0,
		"default_fontname" : "Arial",
		"gridonopen" : 1,
		"gridsize" : [ 15.0, 15.0 ],
		"gridsnaponopen" : 1,
		"objectsnaponopen" : 1,
		"statusbarvisible" : 2,
		"toolbarvisible" : 1,
		"lefttoolbarpinned" : 0,
		"toptoolbarpinned" : 0,
		"righttoolbarpinned" : 0,
		"bottomtoolbarpinned" : 0,
		"toolbars_unpinned_last_save" : 0,
		"tallnewobj" : 0,
		"boxanimatetime" : 200,
		"enablehscroll" : 1,
		"enablevscroll" : 1,
		"devicewidth" : 0.0,
		"description" : "",
		"digest" : "",
		"tags" : "",
		"style" : "",
		"subpatcher_template" : "",
		"boxes" : [ 			{
				"box" : 				{
					"bgcolor" : [ 0.86418, 1.0, 0.406885, 1.0 ],
					"fontsize" : 30.0,
					"id" : "obj-153",
					"maxclass" : "comment",
					"numinlets" : 1,
					"numoutlets" : 0,
					"patching_rect" : [ 480.0, 15.0, 338.0, 40.0 ],
					"presentation" : 1,
					"presentation_rect" : [ 29.666668, 164.666687, 1095.0, 40.0 ],
					"style" : "",
					"text" : "3D Synth",
					"textcolor" : [ 0.925866, 0.419456, 0.749337, 1.0 ],
					"textjustification" : 1
				}

			}
, 			{
				"box" : 				{
					"id" : "obj-151",
					"maxclass" : "comment",
					"numinlets" : 1,
					"numoutlets" : 0,
					"patching_rect" : [ 676.0, 567.0, 150.0, 20.0 ],
					"presentation" : 1,
					"presentation_rect" : [ 676.0, 522.0, 150.0, 20.0 ],
					"style" : ""
				}

			}
, 			{
				"box" : 				{
					"id" : "obj-136",
					"maxclass" : "comment",
					"numinlets" : 1,
					"numoutlets" : 0,
					"patching_rect" : [ 676.0, 567.0, 150.0, 20.0 ],
					"presentation" : 1,
					"presentation_rect" : [ 676.0, 522.0, 150.0, 20.0 ],
					"style" : ""
				}

			}
, 			{
				"box" : 				{
					"id" : "obj-141",
					"maxclass" : "message",
					"numinlets" : 2,
					"numoutlets" : 1,
					"outlettype" : [ "" ],
					"patching_rect" : [ 660.0, 1140.0, 87.0, 22.0 ],
					"style" : "",
					"text" : "presentation 1"
				}

			}
, 			{
				"box" : 				{
					"id" : "obj-122",
					"maxclass" : "newobj",
					"numinlets" : 1,
					"numoutlets" : 2,
					"outlettype" : [ "", "" ],
					"patching_rect" : [ 405.0, 1185.0, 69.0, 22.0 ],
					"save" : [ "#N", "thispatcher", ";", "#Q", "end", ";" ],
					"style" : "",
					"text" : "thispatcher"
				}

			}
, 			{
				"box" : 				{
					"id" : "obj-121",
					"maxclass" : "newobj",
					"numinlets" : 1,
					"numoutlets" : 1,
					"outlettype" : [ "bang" ],
					"patching_rect" : [ 405.0, 1095.0, 60.0, 22.0 ],
					"style" : "",
					"text" : "loadbang"
				}

			}
, 			{
				"box" : 				{
					"fontname" : "Arial",
					"fontsize" : 11.595187,
					"id" : "obj-119",
					"maxclass" : "message",
					"numinlets" : 2,
					"numoutlets" : 1,
					"outlettype" : [ "" ],
					"patching_rect" : [ 405.0, 1140.0, 243.0, 21.0 ],
					"style" : "",
					"text" : "window size 100 100 1225 700, window exec"
				}

			}
, 			{
				"box" : 				{
					"id" : "obj-152",
					"maxclass" : "comment",
					"numinlets" : 1,
					"numoutlets" : 0,
					"patching_rect" : [ 1230.0, 720.0, 65.0, 20.0 ],
					"presentation" : 1,
					"presentation_rect" : [ 1049.666626, 355.333344, 65.0, 20.0 ],
					"style" : "",
					"text" : "Gain Limit"
				}

			}
, 			{
				"box" : 				{
					"id" : "obj-149",
					"maxclass" : "newobj",
					"numinlets" : 0,
					"numoutlets" : 1,
					"outlettype" : [ "" ],
					"patching_rect" : [ 900.0, 855.0, 101.0, 22.0 ],
					"style" : "",
					"text" : "receive elevation"
				}

			}
, 			{
				"box" : 				{
					"id" : "obj-150",
					"maxclass" : "newobj",
					"numinlets" : 0,
					"numoutlets" : 1,
					"outlettype" : [ "" ],
					"patching_rect" : [ 795.0, 855.0, 95.0, 22.0 ],
					"style" : "",
					"text" : "receive azimuth"
				}

			}
, 			{
				"box" : 				{
					"id" : "obj-148",
					"maxclass" : "newobj",
					"numinlets" : 1,
					"numoutlets" : 0,
					"patching_rect" : [ 165.0, 600.0, 88.0, 22.0 ],
					"style" : "",
					"text" : "send elevation"
				}

			}
, 			{
				"box" : 				{
					"id" : "obj-147",
					"maxclass" : "newobj",
					"numinlets" : 1,
					"numoutlets" : 0,
					"patching_rect" : [ 30.0, 600.0, 82.0, 22.0 ],
					"style" : "",
					"text" : "send azimuth"
				}

			}
, 			{
				"box" : 				{
					"id" : "obj-146",
					"maxclass" : "comment",
					"numinlets" : 1,
					"numoutlets" : 0,
					"patching_rect" : [ 165.0, 375.0, 60.0, 20.0 ],
					"presentation" : 1,
					"presentation_rect" : [ 989.666687, 220.333344, 60.0, 20.0 ],
					"style" : "",
					"text" : "Elevation"
				}

			}
, 			{
				"box" : 				{
					"id" : "obj-145",
					"maxclass" : "comment",
					"numinlets" : 1,
					"numoutlets" : 0,
					"patching_rect" : [ 30.0, 375.0, 54.0, 20.0 ],
					"presentation" : 1,
					"presentation_rect" : [ 884.666687, 220.333344, 54.0, 20.0 ],
					"style" : "",
					"text" : "Azimuth"
				}

			}
, 			{
				"box" : 				{
					"id" : "obj-143",
					"maxclass" : "comment",
					"numinlets" : 1,
					"numoutlets" : 0,
					"patching_rect" : [ 1155.0, 165.0, 60.0, 20.0 ],
					"presentation" : 1,
					"presentation_rect" : [ 404.666656, 475.333344, 60.0, 20.0 ],
					"style" : "",
					"text" : "FM index"
				}

			}
, 			{
				"box" : 				{
					"id" : "obj-142",
					"maxclass" : "comment",
					"numinlets" : 1,
					"numoutlets" : 0,
					"patching_rect" : [ 1020.0, 165.0, 55.0, 20.0 ],
					"presentation" : 1,
					"presentation_rect" : [ 404.666656, 400.333344, 55.0, 20.0 ],
					"style" : "",
					"text" : "FM ratio"
				}

			}
, 			{
				"box" : 				{
					"id" : "obj-140",
					"maxclass" : "comment",
					"numinlets" : 1,
					"numoutlets" : 0,
					"patching_rect" : [ 855.0, 705.0, 85.0, 20.0 ],
					"presentation" : 1,
					"presentation_rect" : [ 464.666656, 310.333344, 55.0, 20.0 ],
					"style" : "",
					"text" : "Release"
				}

			}
, 			{
				"box" : 				{
					"id" : "obj-139",
					"maxclass" : "comment",
					"numinlets" : 1,
					"numoutlets" : 0,
					"patching_rect" : [ 720.0, 705.0, 81.0, 20.0 ],
					"presentation" : 1,
					"presentation_rect" : [ 404.666656, 310.333344, 51.0, 20.0 ],
					"style" : "",
					"text" : "Sustain"
				}

			}
, 			{
				"box" : 				{
					"id" : "obj-138",
					"maxclass" : "comment",
					"numinlets" : 1,
					"numoutlets" : 0,
					"patching_rect" : [ 600.0, 705.0, 75.0, 20.0 ],
					"presentation" : 1,
					"presentation_rect" : [ 344.666656, 310.333344, 45.0, 20.0 ],
					"style" : "",
					"text" : "Decay"
				}

			}
, 			{
				"box" : 				{
					"id" : "obj-137",
					"maxclass" : "comment",
					"numinlets" : 1,
					"numoutlets" : 0,
					"patching_rect" : [ 480.0, 705.0, 73.0, 20.0 ],
					"presentation" : 1,
					"presentation_rect" : [ 284.666656, 310.333344, 44.0, 20.0 ],
					"style" : "",
					"text" : "Attack"
				}

			}
, 			{
				"box" : 				{
					"id" : "obj-135",
					"maxclass" : "comment",
					"numinlets" : 1,
					"numoutlets" : 0,
					"patching_rect" : [ 855.0, 555.0, 55.0, 20.0 ],
					"presentation" : 1,
					"presentation_rect" : [ 209.666672, 475.333344, 55.0, 20.0 ],
					"style" : "",
					"text" : "Release"
				}

			}
, 			{
				"box" : 				{
					"id" : "obj-133",
					"maxclass" : "comment",
					"numinlets" : 1,
					"numoutlets" : 0,
					"patching_rect" : [ 720.0, 555.0, 51.0, 20.0 ],
					"presentation" : 1,
					"presentation_rect" : [ 149.666672, 475.333344, 51.0, 20.0 ],
					"style" : "",
					"text" : "Sustain"
				}

			}
, 			{
				"box" : 				{
					"id" : "obj-131",
					"maxclass" : "comment",
					"numinlets" : 1,
					"numoutlets" : 0,
					"patching_rect" : [ 600.0, 555.0, 45.0, 20.0 ],
					"presentation" : 1,
					"presentation_rect" : [ 89.666664, 475.333344, 45.0, 20.0 ],
					"style" : "",
					"text" : "Decay"
				}

			}
, 			{
				"box" : 				{
					"id" : "obj-130",
					"maxclass" : "comment",
					"numinlets" : 1,
					"numoutlets" : 0,
					"patching_rect" : [ 480.0, 555.0, 44.0, 20.0 ],
					"presentation" : 1,
					"presentation_rect" : [ 29.666668, 475.333344, 44.0, 20.0 ],
					"style" : "",
					"text" : "Attack"
				}

			}
, 			{
				"box" : 				{
					"id" : "obj-128",
					"maxclass" : "comment",
					"numinlets" : 1,
					"numoutlets" : 0,
					"patching_rect" : [ 855.0, 405.0, 71.0, 20.0 ],
					"presentation" : 1,
					"presentation_rect" : [ 344.666656, 220.333344, 71.0, 20.0 ],
					"style" : "",
					"text" : "Resonance"
				}

			}
, 			{
				"box" : 				{
					"id" : "obj-127",
					"maxclass" : "comment",
					"numinlets" : 1,
					"numoutlets" : 0,
					"patching_rect" : [ 720.0, 405.0, 59.0, 20.0 ],
					"presentation" : 1,
					"presentation_rect" : [ 89.666664, 400.333344, 59.0, 20.0 ],
					"style" : "",
					"text" : "Detune 3"
				}

			}
, 			{
				"box" : 				{
					"id" : "obj-125",
					"maxclass" : "comment",
					"numinlets" : 1,
					"numoutlets" : 0,
					"patching_rect" : [ 600.0, 405.0, 59.0, 20.0 ],
					"presentation" : 1,
					"presentation_rect" : [ 89.666664, 310.333344, 59.0, 20.0 ],
					"style" : "",
					"text" : "Detune 2"
				}

			}
, 			{
				"box" : 				{
					"id" : "obj-124",
					"maxclass" : "comment",
					"numinlets" : 1,
					"numoutlets" : 0,
					"patching_rect" : [ 480.0, 405.0, 59.0, 20.0 ],
					"presentation" : 1,
					"presentation_rect" : [ 89.666664, 220.333344, 59.0, 20.0 ],
					"style" : "",
					"text" : "Detune 1"
				}

			}
, 			{
				"box" : 				{
					"id" : "obj-120",
					"maxclass" : "comment",
					"numinlets" : 1,
					"numoutlets" : 0,
					"patching_rect" : [ 855.0, 255.0, 102.0, 20.0 ],
					"presentation" : 1,
					"presentation_rect" : [ 284.666656, 220.333344, 42.0, 20.0 ],
					"style" : "",
					"text" : "Cutoff"
				}

			}
, 			{
				"box" : 				{
					"id" : "obj-118",
					"maxclass" : "comment",
					"numinlets" : 1,
					"numoutlets" : 0,
					"patching_rect" : [ 720.0, 255.0, 46.0, 20.0 ],
					"presentation" : 1,
					"presentation_rect" : [ 29.666668, 400.333344, 46.0, 20.0 ],
					"style" : "",
					"text" : "Gain 3"
				}

			}
, 			{
				"box" : 				{
					"id" : "obj-117",
					"maxclass" : "comment",
					"numinlets" : 1,
					"numoutlets" : 0,
					"patching_rect" : [ 600.0, 255.0, 46.0, 20.0 ],
					"presentation" : 1,
					"presentation_rect" : [ 29.666668, 310.333344, 46.0, 20.0 ],
					"style" : "",
					"text" : "Gain 2"
				}

			}
, 			{
				"box" : 				{
					"id" : "obj-116",
					"maxclass" : "comment",
					"numinlets" : 1,
					"numoutlets" : 0,
					"patching_rect" : [ 480.0, 255.0, 46.0, 20.0 ],
					"presentation" : 1,
					"presentation_rect" : [ 29.666668, 220.333344, 46.0, 20.0 ],
					"style" : "",
					"text" : "Gain 1"
				}

			}
, 			{
				"box" : 				{
					"id" : "obj-114",
					"maxclass" : "comment",
					"numinlets" : 1,
					"numoutlets" : 0,
					"patching_rect" : [ 1155.0, 15.0, 64.0, 20.0 ],
					"presentation" : 1,
					"presentation_rect" : [ 284.666656, 475.333344, 64.0, 20.0 ],
					"style" : "",
					"text" : "AM Depth"
				}

			}
, 			{
				"box" : 				{
					"id" : "obj-113",
					"maxclass" : "comment",
					"numinlets" : 1,
					"numoutlets" : 0,
					"patching_rect" : [ 1020.0, 15.0, 89.0, 20.0 ],
					"presentation" : 1,
					"presentation_rect" : [ 284.666656, 400.333344, 67.0, 20.0 ],
					"style" : "",
					"text" : "AM Speed"
				}

			}
, 			{
				"box" : 				{
					"id" : "obj-112",
					"maxclass" : "comment",
					"numinlets" : 1,
					"numoutlets" : 0,
					"patching_rect" : [ 855.0, 60.0, 37.0, 20.0 ],
					"presentation" : 1,
					"presentation_rect" : [ 419.666656, 220.333344, 37.0, 20.0 ],
					"style" : "",
					"text" : "Filter"
				}

			}
, 			{
				"box" : 				{
					"id" : "obj-111",
					"maxclass" : "comment",
					"numinlets" : 1,
					"numoutlets" : 0,
					"patching_rect" : [ 720.0, 60.0, 75.0, 20.0 ],
					"presentation" : 1,
					"presentation_rect" : [ 164.666672, 400.333344, 75.0, 20.0 ],
					"style" : "",
					"text" : "Waveform 3"
				}

			}
, 			{
				"box" : 				{
					"id" : "obj-110",
					"maxclass" : "comment",
					"numinlets" : 1,
					"numoutlets" : 0,
					"patching_rect" : [ 600.0, 60.0, 75.0, 20.0 ],
					"presentation" : 1,
					"presentation_rect" : [ 164.666672, 310.333344, 75.0, 20.0 ],
					"style" : "",
					"text" : "Waveform 2"
				}

			}
, 			{
				"box" : 				{
					"id" : "obj-108",
					"maxclass" : "comment",
					"numinlets" : 1,
					"numoutlets" : 0,
					"patching_rect" : [ 480.0, 60.0, 75.0, 20.0 ],
					"presentation" : 1,
					"presentation_rect" : [ 164.666672, 220.333344, 75.0, 20.0 ],
					"style" : "",
					"text" : "Waveform 1"
				}

			}
, 			{
				"box" : 				{
					"id" : "obj-101",
					"maxclass" : "newobj",
					"numinlets" : 1,
					"numoutlets" : 1,
					"outlettype" : [ "signal" ],
					"patching_rect" : [ 600.0, 855.0, 83.0, 22.0 ],
					"style" : "",
					"text" : "receive~ tune"
				}

			}
, 			{
				"box" : 				{
					"id" : "obj-97",
					"maxclass" : "newobj",
					"numinlets" : 1,
					"numoutlets" : 1,
					"outlettype" : [ "signal" ],
					"patching_rect" : [ 690.0, 855.0, 88.0, 22.0 ],
					"style" : "",
					"text" : "receive~ synth"
				}

			}
, 			{
				"box" : 				{
					"id" : "obj-92",
					"maxclass" : "newobj",
					"numinlets" : 1,
					"numoutlets" : 0,
					"patching_rect" : [ 30.0, 330.0, 76.0, 22.0 ],
					"style" : "",
					"text" : "send~ synth"
				}

			}
, 			{
				"box" : 				{
					"fontname" : "Arial",
					"fontsize" : 12.0,
					"format" : 6,
					"id" : "obj-134",
					"maxclass" : "flonum",
					"numinlets" : 1,
					"numoutlets" : 2,
					"outlettype" : [ "", "bang" ],
					"parameter_enable" : 0,
					"patching_rect" : [ 1230.0, 750.0, 50.0, 22.0 ],
					"presentation" : 1,
					"presentation_rect" : [ 1049.666626, 400.333344, 50.0, 22.0 ],
					"style" : ""
				}

			}
, 			{
				"box" : 				{
					"fontname" : "Arial",
					"fontsize" : 12.0,
					"id" : "obj-132",
					"maxclass" : "message",
					"numinlets" : 2,
					"numoutlets" : 1,
					"outlettype" : [ "" ],
					"patching_rect" : [ 1230.0, 795.0, 75.0, 22.0 ],
					"style" : "",
					"text" : "gainLimit $1"
				}

			}
, 			{
				"box" : 				{
					"fontname" : "Arial",
					"fontsize" : 12.0,
					"format" : 6,
					"id" : "obj-126",
					"maxclass" : "flonum",
					"numinlets" : 1,
					"numoutlets" : 2,
					"outlettype" : [ "", "bang" ],
					"parameter_enable" : 0,
					"patching_rect" : [ 1095.0, 945.0, 50.0, 22.0 ],
					"style" : ""
				}

			}
, 			{
				"box" : 				{
					"fontname" : "Arial",
					"fontsize" : 12.0,
					"format" : 6,
					"id" : "obj-123",
					"maxclass" : "flonum",
					"numinlets" : 1,
					"numoutlets" : 2,
					"outlettype" : [ "", "bang" ],
					"parameter_enable" : 0,
					"patching_rect" : [ 1035.0, 945.0, 50.0, 22.0 ],
					"style" : ""
				}

			}
, 			{
				"box" : 				{
					"fontname" : "Arial",
					"fontsize" : 12.0,
					"format" : 6,
					"id" : "obj-23",
					"maxclass" : "flonum",
					"numinlets" : 1,
					"numoutlets" : 2,
					"outlettype" : [ "", "bang" ],
					"parameter_enable" : 0,
					"patching_rect" : [ 975.0, 945.0, 50.0, 22.0 ],
					"style" : ""
				}

			}
, 			{
				"box" : 				{
					"fontname" : "Arial",
					"fontsize" : 12.0,
					"id" : "obj-106",
					"maxclass" : "newobj",
					"numinlets" : 2,
					"numoutlets" : 1,
					"outlettype" : [ "float" ],
					"patching_rect" : [ 1095.0, 990.0, 42.0, 22.0 ],
					"style" : "",
					"text" : "* 44.1"
				}

			}
, 			{
				"box" : 				{
					"fontname" : "Arial",
					"fontsize" : 12.0,
					"id" : "obj-105",
					"maxclass" : "newobj",
					"numinlets" : 1,
					"numoutlets" : 0,
					"patching_rect" : [ 45.0, 1305.0, 194.0, 22.0 ],
					"style" : "",
					"text" : "s toDirectionAndDistanceHandler1"
				}

			}
, 			{
				"box" : 				{
					"fontname" : "Arial",
					"fontsize" : 12.0,
					"id" : "obj-104",
					"maxclass" : "newobj",
					"numinlets" : 0,
					"numoutlets" : 1,
					"outlettype" : [ "" ],
					"patching_rect" : [ 1020.0, 795.0, 192.0, 22.0 ],
					"style" : "",
					"text" : "r toDirectionAndDistanceHandler1"
				}

			}
, 			{
				"box" : 				{
					"fontname" : "Arial",
					"fontsize" : 12.0,
					"id" : "obj-96",
					"maxclass" : "newobj",
					"numinlets" : 3,
					"numoutlets" : 2,
					"outlettype" : [ "", "" ],
					"patcher" : 					{
						"fileversion" : 1,
						"appversion" : 						{
							"major" : 7,
							"minor" : 3,
							"revision" : 1,
							"architecture" : "x86",
							"modernui" : 1
						}
,
						"rect" : [ 287.0, 229.0, 640.0, 480.0 ],
						"bglocked" : 0,
						"openinpresentation" : 0,
						"default_fontsize" : 12.0,
						"default_fontface" : 0,
						"default_fontname" : "Arial",
						"gridonopen" : 1,
						"gridsize" : [ 15.0, 15.0 ],
						"gridsnaponopen" : 1,
						"objectsnaponopen" : 1,
						"statusbarvisible" : 2,
						"toolbarvisible" : 1,
						"lefttoolbarpinned" : 0,
						"toptoolbarpinned" : 0,
						"righttoolbarpinned" : 0,
						"bottomtoolbarpinned" : 0,
						"toolbars_unpinned_last_save" : 0,
						"tallnewobj" : 0,
						"boxanimatetime" : 200,
						"enablehscroll" : 1,
						"enablevscroll" : 1,
						"devicewidth" : 0.0,
						"description" : "",
						"digest" : "",
						"tags" : "",
						"style" : "",
						"subpatcher_template" : "",
						"boxes" : [ 							{
								"box" : 								{
									"fontname" : "Arial",
									"fontsize" : 12.0,
									"id" : "obj-14",
									"maxclass" : "newobj",
									"numinlets" : 2,
									"numoutlets" : 1,
									"outlettype" : [ "float" ],
									"patching_rect" : [ 375.0, 210.0, 32.5, 22.0 ],
									"style" : "",
									"text" : "!- 1."
								}

							}
, 							{
								"box" : 								{
									"fontname" : "Arial",
									"fontsize" : 12.0,
									"id" : "obj-11",
									"maxclass" : "newobj",
									"numinlets" : 2,
									"numoutlets" : 1,
									"outlettype" : [ "float" ],
									"patching_rect" : [ 180.0, 195.0, 32.5, 22.0 ],
									"style" : "",
									"text" : "!- 1."
								}

							}
, 							{
								"box" : 								{
									"fontname" : "Arial",
									"fontsize" : 12.0,
									"id" : "obj-9",
									"maxclass" : "newobj",
									"numinlets" : 1,
									"numoutlets" : 2,
									"outlettype" : [ "bang", "float" ],
									"patching_rect" : [ 285.0, 240.0, 32.5, 22.0 ],
									"style" : "",
									"text" : "t b f"
								}

							}
, 							{
								"box" : 								{
									"fontname" : "Arial",
									"fontsize" : 12.0,
									"id" : "obj-10",
									"maxclass" : "newobj",
									"numinlets" : 1,
									"numoutlets" : 2,
									"outlettype" : [ "bang", "float" ],
									"patching_rect" : [ 330.0, 240.0, 32.5, 22.0 ],
									"style" : "",
									"text" : "t b f"
								}

							}
, 							{
								"box" : 								{
									"fontname" : "Arial",
									"fontsize" : 12.0,
									"id" : "obj-95",
									"maxclass" : "newobj",
									"numinlets" : 1,
									"numoutlets" : 2,
									"outlettype" : [ "bang", "float" ],
									"patching_rect" : [ 60.0, 240.0, 32.5, 22.0 ],
									"style" : "",
									"text" : "t b f"
								}

							}
, 							{
								"box" : 								{
									"fontname" : "Arial",
									"fontsize" : 12.0,
									"id" : "obj-92",
									"maxclass" : "newobj",
									"numinlets" : 1,
									"numoutlets" : 2,
									"outlettype" : [ "bang", "float" ],
									"patching_rect" : [ 105.0, 240.0, 32.5, 22.0 ],
									"style" : "",
									"text" : "t b f"
								}

							}
, 							{
								"box" : 								{
									"fontname" : "Arial",
									"fontsize" : 12.0,
									"id" : "obj-85",
									"maxclass" : "newobj",
									"numinlets" : 4,
									"numoutlets" : 1,
									"outlettype" : [ "" ],
									"patching_rect" : [ 285.0, 285.0, 113.0, 22.0 ],
									"style" : "",
									"text" : "pack soundPos f f f"
								}

							}
, 							{
								"box" : 								{
									"fontname" : "Arial",
									"fontsize" : 12.0,
									"id" : "obj-84",
									"maxclass" : "newobj",
									"numinlets" : 4,
									"numoutlets" : 1,
									"outlettype" : [ "" ],
									"patching_rect" : [ 45.0, 285.0, 119.0, 22.0 ],
									"style" : "",
									"text" : "pack listenerPos f f f"
								}

							}
, 							{
								"box" : 								{
									"fontname" : "Arial",
									"fontsize" : 12.0,
									"id" : "obj-56",
									"maxclass" : "newobj",
									"numinlets" : 2,
									"numoutlets" : 1,
									"outlettype" : [ "float" ],
									"patching_rect" : [ 375.0, 240.0, 35.0, 22.0 ],
									"style" : "",
									"text" : "* 10."
								}

							}
, 							{
								"box" : 								{
									"fontname" : "Arial",
									"fontsize" : 12.0,
									"id" : "obj-55",
									"maxclass" : "newobj",
									"numinlets" : 2,
									"numoutlets" : 1,
									"outlettype" : [ "float" ],
									"patching_rect" : [ 300.0, 195.0, 35.0, 22.0 ],
									"style" : "",
									"text" : "* 10."
								}

							}
, 							{
								"box" : 								{
									"fontname" : "Arial",
									"fontsize" : 12.0,
									"id" : "obj-54",
									"maxclass" : "newobj",
									"numinlets" : 2,
									"numoutlets" : 1,
									"outlettype" : [ "float" ],
									"patching_rect" : [ 180.0, 225.0, 35.0, 22.0 ],
									"style" : "",
									"text" : "* 10."
								}

							}
, 							{
								"box" : 								{
									"fontname" : "Arial",
									"fontsize" : 12.0,
									"id" : "obj-53",
									"maxclass" : "newobj",
									"numinlets" : 2,
									"numoutlets" : 1,
									"outlettype" : [ "float" ],
									"patching_rect" : [ 135.0, 195.0, 35.0, 22.0 ],
									"style" : "",
									"text" : "* 10."
								}

							}
, 							{
								"box" : 								{
									"fontname" : "Arial",
									"fontsize" : 12.0,
									"id" : "obj-52",
									"maxclass" : "newobj",
									"numinlets" : 1,
									"numoutlets" : 2,
									"outlettype" : [ "float", "float" ],
									"patching_rect" : [ 300.0, 165.0, 63.0, 22.0 ],
									"style" : "",
									"text" : "unpack f f"
								}

							}
, 							{
								"box" : 								{
									"fontname" : "Arial",
									"fontsize" : 12.0,
									"id" : "obj-49",
									"maxclass" : "newobj",
									"numinlets" : 1,
									"numoutlets" : 2,
									"outlettype" : [ "float", "float" ],
									"patching_rect" : [ 135.0, 165.0, 63.0, 22.0 ],
									"style" : "",
									"text" : "unpack f f"
								}

							}
, 							{
								"box" : 								{
									"fontname" : "Arial",
									"fontsize" : 12.0,
									"id" : "obj-44",
									"maxclass" : "newobj",
									"numinlets" : 3,
									"numoutlets" : 3,
									"outlettype" : [ "", "", "" ],
									"patching_rect" : [ 135.0, 120.0, 58.0, 22.0 ],
									"style" : "",
									"text" : "route 1 2"
								}

							}
, 							{
								"box" : 								{
									"fontname" : "Arial",
									"fontsize" : 12.0,
									"id" : "obj-43",
									"maxclass" : "newobj",
									"numinlets" : 2,
									"numoutlets" : 2,
									"outlettype" : [ "", "" ],
									"patching_rect" : [ 135.0, 90.0, 68.0, 22.0 ],
									"style" : "",
									"text" : "route node"
								}

							}
, 							{
								"box" : 								{
									"comment" : "",
									"id" : "obj-7",
									"maxclass" : "inlet",
									"numinlets" : 0,
									"numoutlets" : 1,
									"outlettype" : [ "" ],
									"patching_rect" : [ 75.0, 30.0, 25.0, 25.0 ],
									"style" : ""
								}

							}
, 							{
								"box" : 								{
									"comment" : "",
									"id" : "obj-6",
									"maxclass" : "outlet",
									"numinlets" : 1,
									"numoutlets" : 0,
									"patching_rect" : [ 135.0, 390.0, 25.0, 25.0 ],
									"style" : ""
								}

							}
, 							{
								"box" : 								{
									"comment" : "",
									"id" : "obj-5",
									"maxclass" : "outlet",
									"numinlets" : 1,
									"numoutlets" : 0,
									"patching_rect" : [ 45.0, 390.0, 25.0, 25.0 ],
									"style" : ""
								}

							}
, 							{
								"box" : 								{
									"comment" : "",
									"id" : "obj-4",
									"maxclass" : "inlet",
									"numinlets" : 0,
									"numoutlets" : 1,
									"outlettype" : [ "" ],
									"patching_rect" : [ 135.0, 30.0, 25.0, 25.0 ],
									"style" : ""
								}

							}
, 							{
								"box" : 								{
									"comment" : "",
									"id" : "obj-3",
									"maxclass" : "inlet",
									"numinlets" : 0,
									"numoutlets" : 1,
									"outlettype" : [ "" ],
									"patching_rect" : [ 45.0, 30.0, 25.0, 25.0 ],
									"style" : ""
								}

							}
, 							{
								"box" : 								{
									"fontname" : "Arial",
									"fontsize" : 12.0,
									"id" : "obj-2",
									"linecount" : 5,
									"maxclass" : "comment",
									"numinlets" : 1,
									"numoutlets" : 0,
									"patching_rect" : [ 315.0, 30.0, 300.0, 74.0 ],
									"style" : "",
									"text" : "This patch just scales the x,y values from the 'nodes' object to match the 10 meter size of the 'room' (notice the '* 10.' objects) and packs them together with the z values. The '!- 1.' objects just flip the y coordinate to match the convention that 'up' screen is 'forward'."
								}

							}
 ],
						"lines" : [ 							{
								"patchline" : 								{
									"destination" : [ "obj-85", 1 ],
									"disabled" : 0,
									"hidden" : 0,
									"source" : [ "obj-10", 1 ]
								}

							}
, 							{
								"patchline" : 								{
									"destination" : [ "obj-85", 0 ],
									"disabled" : 0,
									"hidden" : 0,
									"source" : [ "obj-10", 0 ]
								}

							}
, 							{
								"patchline" : 								{
									"destination" : [ "obj-54", 0 ],
									"disabled" : 0,
									"hidden" : 0,
									"source" : [ "obj-11", 0 ]
								}

							}
, 							{
								"patchline" : 								{
									"destination" : [ "obj-56", 0 ],
									"disabled" : 0,
									"hidden" : 0,
									"source" : [ "obj-14", 0 ]
								}

							}
, 							{
								"patchline" : 								{
									"destination" : [ "obj-95", 0 ],
									"disabled" : 0,
									"hidden" : 0,
									"source" : [ "obj-3", 0 ]
								}

							}
, 							{
								"patchline" : 								{
									"destination" : [ "obj-43", 0 ],
									"disabled" : 0,
									"hidden" : 0,
									"source" : [ "obj-4", 0 ]
								}

							}
, 							{
								"patchline" : 								{
									"destination" : [ "obj-44", 0 ],
									"disabled" : 0,
									"hidden" : 0,
									"source" : [ "obj-43", 0 ]
								}

							}
, 							{
								"patchline" : 								{
									"destination" : [ "obj-49", 0 ],
									"disabled" : 0,
									"hidden" : 0,
									"source" : [ "obj-44", 0 ]
								}

							}
, 							{
								"patchline" : 								{
									"destination" : [ "obj-52", 0 ],
									"disabled" : 0,
									"hidden" : 0,
									"midpoints" : [ 164.0, 152.0, 309.5, 152.0 ],
									"source" : [ "obj-44", 1 ]
								}

							}
, 							{
								"patchline" : 								{
									"destination" : [ "obj-11", 0 ],
									"disabled" : 0,
									"hidden" : 0,
									"source" : [ "obj-49", 1 ]
								}

							}
, 							{
								"patchline" : 								{
									"destination" : [ "obj-53", 0 ],
									"disabled" : 0,
									"hidden" : 0,
									"source" : [ "obj-49", 0 ]
								}

							}
, 							{
								"patchline" : 								{
									"destination" : [ "obj-14", 0 ],
									"disabled" : 0,
									"hidden" : 0,
									"source" : [ "obj-52", 1 ]
								}

							}
, 							{
								"patchline" : 								{
									"destination" : [ "obj-55", 0 ],
									"disabled" : 0,
									"hidden" : 0,
									"source" : [ "obj-52", 0 ]
								}

							}
, 							{
								"patchline" : 								{
									"destination" : [ "obj-92", 0 ],
									"disabled" : 0,
									"hidden" : 0,
									"source" : [ "obj-53", 0 ]
								}

							}
, 							{
								"patchline" : 								{
									"destination" : [ "obj-84", 2 ],
									"disabled" : 0,
									"hidden" : 0,
									"source" : [ "obj-54", 0 ]
								}

							}
, 							{
								"patchline" : 								{
									"destination" : [ "obj-10", 0 ],
									"disabled" : 0,
									"hidden" : 0,
									"source" : [ "obj-55", 0 ]
								}

							}
, 							{
								"patchline" : 								{
									"destination" : [ "obj-85", 2 ],
									"disabled" : 0,
									"hidden" : 0,
									"source" : [ "obj-56", 0 ]
								}

							}
, 							{
								"patchline" : 								{
									"destination" : [ "obj-9", 0 ],
									"disabled" : 0,
									"hidden" : 0,
									"midpoints" : [ 84.5, 147.0, 294.5, 147.0 ],
									"source" : [ "obj-7", 0 ]
								}

							}
, 							{
								"patchline" : 								{
									"destination" : [ "obj-5", 0 ],
									"disabled" : 0,
									"hidden" : 0,
									"source" : [ "obj-84", 0 ]
								}

							}
, 							{
								"patchline" : 								{
									"destination" : [ "obj-6", 0 ],
									"disabled" : 0,
									"hidden" : 0,
									"midpoints" : [ 294.5, 370.0, 144.5, 370.0 ],
									"source" : [ "obj-85", 0 ]
								}

							}
, 							{
								"patchline" : 								{
									"destination" : [ "obj-85", 3 ],
									"disabled" : 0,
									"hidden" : 0,
									"source" : [ "obj-9", 1 ]
								}

							}
, 							{
								"patchline" : 								{
									"destination" : [ "obj-85", 0 ],
									"disabled" : 0,
									"hidden" : 0,
									"source" : [ "obj-9", 0 ]
								}

							}
, 							{
								"patchline" : 								{
									"destination" : [ "obj-84", 1 ],
									"disabled" : 0,
									"hidden" : 0,
									"source" : [ "obj-92", 1 ]
								}

							}
, 							{
								"patchline" : 								{
									"destination" : [ "obj-84", 0 ],
									"disabled" : 0,
									"hidden" : 0,
									"source" : [ "obj-92", 0 ]
								}

							}
, 							{
								"patchline" : 								{
									"destination" : [ "obj-84", 3 ],
									"disabled" : 0,
									"hidden" : 0,
									"source" : [ "obj-95", 1 ]
								}

							}
, 							{
								"patchline" : 								{
									"destination" : [ "obj-84", 0 ],
									"disabled" : 0,
									"hidden" : 0,
									"source" : [ "obj-95", 0 ]
								}

							}
 ]
					}
,
					"patching_rect" : [ 45.0, 1260.0, 99.0, 22.0 ],
					"saved_object_attributes" : 					{
						"description" : "",
						"digest" : "",
						"globalpatchername" : "",
						"style" : "",
						"tags" : ""
					}
,
					"style" : "",
					"text" : "p positionPacker"
				}

			}
, 			{
				"box" : 				{
					"fontname" : "Arial",
					"fontsize" : 12.0,
					"id" : "obj-80",
					"linecount" : 2,
					"maxclass" : "comment",
					"numinlets" : 1,
					"numoutlets" : 0,
					"patching_rect" : [ 105.0, 1050.0, 49.0, 33.0 ],
					"presentation" : 1,
					"presentation_linecount" : 2,
					"presentation_rect" : [ 974.666687, 355.333344, 49.0, 33.0 ],
					"style" : "",
					"text" : "Sound\nheight"
				}

			}
, 			{
				"box" : 				{
					"floatoutput" : 1,
					"id" : "obj-83",
					"maxclass" : "slider",
					"mult" : 0.01,
					"numinlets" : 1,
					"numoutlets" : 1,
					"outlettype" : [ "" ],
					"parameter_enable" : 0,
					"patching_rect" : [ 105.0, 1095.0, 20.0, 140.0 ],
					"presentation" : 1,
					"presentation_rect" : [ 974.666687, 400.333344, 20.0, 140.0 ],
					"size" : 500.0,
					"style" : ""
				}

			}
, 			{
				"box" : 				{
					"fontname" : "Arial",
					"fontsize" : 12.0,
					"id" : "obj-79",
					"linecount" : 2,
					"maxclass" : "comment",
					"numinlets" : 1,
					"numoutlets" : 0,
					"patching_rect" : [ 45.0, 1050.0, 57.0, 33.0 ],
					"presentation" : 1,
					"presentation_linecount" : 2,
					"presentation_rect" : [ 884.666687, 355.333344, 57.0, 33.0 ],
					"style" : "",
					"text" : "Listener\nheight"
				}

			}
, 			{
				"box" : 				{
					"floatoutput" : 1,
					"id" : "obj-25",
					"maxclass" : "slider",
					"mult" : 0.01,
					"numinlets" : 1,
					"numoutlets" : 1,
					"outlettype" : [ "" ],
					"parameter_enable" : 0,
					"patching_rect" : [ 45.0, 1095.0, 20.0, 140.0 ],
					"presentation" : 1,
					"presentation_rect" : [ 884.666687, 400.333344, 20.0, 140.0 ],
					"size" : 500.0,
					"style" : ""
				}

			}
, 			{
				"box" : 				{
					"id" : "obj-41",
					"maxclass" : "nodes",
					"nodenumber" : 2,
					"nsize" : [ 0.05, 0.05 ],
					"numinlets" : 1,
					"numoutlets" : 3,
					"outlettype" : [ "", "", "" ],
					"parameter_enable" : 0,
					"patching_rect" : [ 30.0, 645.0, 390.0, 390.0 ],
					"presentation" : 1,
					"presentation_rect" : [ 539.666687, 220.333344, 330.0, 330.0 ],
					"style" : "",
					"xplace" : [ 0.358974, 0.425641 ],
					"yplace" : [ 0.689744, 0.164103 ]
				}

			}
, 			{
				"box" : 				{
					"fontname" : "Arial",
					"fontsize" : 12.0,
					"id" : "obj-45",
					"maxclass" : "message",
					"numinlets" : 2,
					"numoutlets" : 1,
					"outlettype" : [ "" ],
					"patching_rect" : [ 1035.0, 990.0, 41.0, 22.0 ],
					"style" : "",
					"text" : "$1 20"
				}

			}
, 			{
				"box" : 				{
					"fontname" : "Arial",
					"fontsize" : 12.0,
					"id" : "obj-46",
					"maxclass" : "message",
					"numinlets" : 2,
					"numoutlets" : 1,
					"outlettype" : [ "" ],
					"patching_rect" : [ 975.0, 990.0, 41.0, 22.0 ],
					"style" : "",
					"text" : "$1 20"
				}

			}
, 			{
				"box" : 				{
					"fontname" : "Arial",
					"fontsize" : 12.0,
					"id" : "obj-47",
					"maxclass" : "newobj",
					"numinlets" : 2,
					"numoutlets" : 2,
					"outlettype" : [ "signal", "bang" ],
					"patching_rect" : [ 1035.0, 1035.0, 50.0, 22.0 ],
					"style" : "",
					"text" : "line~ 1."
				}

			}
, 			{
				"box" : 				{
					"fontname" : "Arial",
					"fontsize" : 12.0,
					"id" : "obj-50",
					"maxclass" : "newobj",
					"numinlets" : 2,
					"numoutlets" : 2,
					"outlettype" : [ "signal", "bang" ],
					"patching_rect" : [ 975.0, 1035.0, 50.0, 22.0 ],
					"style" : "",
					"text" : "line~ 1."
				}

			}
, 			{
				"box" : 				{
					"fontname" : "Arial",
					"fontsize" : 12.0,
					"id" : "obj-57",
					"maxclass" : "message",
					"numinlets" : 2,
					"numoutlets" : 1,
					"outlettype" : [ "" ],
					"patching_rect" : [ 1095.0, 1035.0, 47.0, 22.0 ],
					"style" : "",
					"text" : "$1 150"
				}

			}
, 			{
				"box" : 				{
					"fontname" : "Arial",
					"fontsize" : 12.0,
					"id" : "obj-58",
					"maxclass" : "newobj",
					"numinlets" : 2,
					"numoutlets" : 2,
					"outlettype" : [ "signal", "bang" ],
					"patching_rect" : [ 1095.0, 1080.0, 50.0, 22.0 ],
					"style" : "",
					"text" : "line~ 0."
				}

			}
, 			{
				"box" : 				{
					"fontname" : "Arial",
					"fontsize" : 12.0,
					"id" : "obj-59",
					"maxclass" : "newobj",
					"numinlets" : 2,
					"numoutlets" : 1,
					"outlettype" : [ "signal" ],
					"patching_rect" : [ 915.0, 1080.0, 36.0, 22.0 ],
					"style" : "",
					"text" : "*~ 1."
				}

			}
, 			{
				"box" : 				{
					"fontname" : "Arial",
					"fontsize" : 12.0,
					"id" : "obj-77",
					"maxclass" : "newobj",
					"numinlets" : 2,
					"numoutlets" : 1,
					"outlettype" : [ "signal" ],
					"patching_rect" : [ 870.0, 1080.0, 36.0, 22.0 ],
					"style" : "",
					"text" : "*~ 1."
				}

			}
, 			{
				"box" : 				{
					"fontname" : "Arial",
					"fontsize" : 12.0,
					"id" : "obj-85",
					"maxclass" : "newobj",
					"numinlets" : 2,
					"numoutlets" : 1,
					"outlettype" : [ "signal" ],
					"patching_rect" : [ 1035.0, 1140.0, 83.0, 22.0 ],
					"style" : "",
					"text" : "delay~ 88000"
				}

			}
, 			{
				"box" : 				{
					"fontname" : "Arial",
					"fontsize" : 12.0,
					"id" : "obj-88",
					"maxclass" : "newobj",
					"numinlets" : 2,
					"numoutlets" : 1,
					"outlettype" : [ "signal" ],
					"patching_rect" : [ 870.0, 1140.0, 83.0, 22.0 ],
					"style" : "",
					"text" : "delay~ 88000"
				}

			}
, 			{
				"box" : 				{
					"fontname" : "Arial",
					"fontsize" : 12.0,
					"id" : "obj-89",
					"maxclass" : "newobj",
					"numinlets" : 3,
					"numoutlets" : 2,
					"outlettype" : [ "signal", "signal" ],
					"patching_rect" : [ 810.0, 945.0, 109.0, 22.0 ],
					"style" : "",
					"text" : "panner"
				}

			}
, 			{
				"box" : 				{
					"color" : [ 0.266667, 0.266667, 0.741176, 1.0 ],
					"fontname" : "Arial",
					"fontsize" : 12.0,
					"id" : "obj-91",
					"maxclass" : "newobj",
					"numinlets" : 1,
					"numoutlets" : 5,
					"outlettype" : [ "", "int", "int", "int", "" ],
					"patching_rect" : [ 1020.0, 855.0, 190.0, 22.0 ],
					"style" : "",
					"text" : "mxj DirectionAndDistanceHandler"
				}

			}
, 			{
				"box" : 				{
					"id" : "obj-37",
					"maxclass" : "newobj",
					"numinlets" : 1,
					"numoutlets" : 1,
					"outlettype" : [ "" ],
					"patching_rect" : [ 210.0, 15.0, 72.0, 22.0 ],
					"style" : "",
					"text" : "loadmess 1"
				}

			}
, 			{
				"box" : 				{
					"id" : "obj-109",
					"maxclass" : "preset",
					"numinlets" : 1,
					"numoutlets" : 4,
					"outlettype" : [ "preset", "int", "preset", "int" ],
					"patching_rect" : [ 210.0, 60.0, 100.0, 40.0 ],
					"presentation" : 1,
					"presentation_rect" : [ 209.666672, 580.333313, 100.0, 40.0 ],
					"preset_data" : [ 						{
							"number" : 1,
							"data" : [ 5, "obj-2", "live.gain~", "float", 0.0, 5, "obj-8", "umenu", "int", 0, 5, "obj-19", "umenu", "int", 1, 5, "obj-20", "umenu", "int", 3, 5, "obj-21", "umenu", "int", 2, 5, "obj-28", "dial", "float", 0.782393, 5, "obj-29", "dial", "float", 0.864796, 5, "obj-30", "dial", "float", 0.93978, 5, "obj-31", "dial", "float", 11.0, 5, "obj-32", "dial", "float", 24.0, 5, "obj-33", "dial", "float", 24.0, 5, "obj-24", "umenu", "int", 0, 5, "obj-38", "dial", "float", 0.431469, 5, "obj-39", "dial", "float", 16941.744141, 5, "obj-55", "dial", "float", 0.207472, 5, "obj-56", "dial", "float", 36.0, 5, "obj-61", "dial", "float", 17.0, 5, "obj-62", "dial", "float", 902.0, 5, "obj-66", "dial", "float", 0.683638, 5, "obj-65", "dial", "float", 182.0, 5, "obj-64", "dial", "float", 96.0, 5, "obj-63", "dial", "float", 902.0, 5, "obj-75", "dial", "float", 0.243634, 5, "obj-76", "dial", "float", 77.480942, 5, "obj-78", "dial", "float", 1.992439, 5, "obj-84", "dial", "float", 0.010656, 5, "obj-9", "kslider", "int", 68, 5, "obj-49", "dial", "float", 41.0, 5, "obj-48", "dial", "float", 121.0, 5, "<invalid>", "toggle", "int", 0 ]
						}
 ],
					"style" : ""
				}

			}
, 			{
				"box" : 				{
					"id" : "obj-103",
					"maxclass" : "newobj",
					"numinlets" : 0,
					"numoutlets" : 1,
					"outlettype" : [ "" ],
					"patching_rect" : [ 30.0, 405.0, 119.0, 22.0 ],
					"style" : "",
					"text" : "receive tuneAzimuth"
				}

			}
, 			{
				"box" : 				{
					"id" : "obj-100",
					"maxclass" : "newobj",
					"numinlets" : 0,
					"numoutlets" : 1,
					"outlettype" : [ "" ],
					"patching_rect" : [ 165.0, 405.0, 125.0, 22.0 ],
					"style" : "",
					"text" : "receive tuneElevation"
				}

			}
, 			{
				"box" : 				{
					"id" : "obj-98",
					"maxclass" : "newobj",
					"numinlets" : 0,
					"numoutlets" : 1,
					"outlettype" : [ "" ],
					"patching_rect" : [ 1020.0, 345.0, 127.0, 22.0 ],
					"style" : "",
					"text" : "receive tuneKeyboard"
				}

			}
, 			{
				"box" : 				{
					"id" : "obj-90",
					"maxclass" : "newobj",
					"numinlets" : 2,
					"numoutlets" : 0,
					"patcher" : 					{
						"fileversion" : 1,
						"appversion" : 						{
							"major" : 7,
							"minor" : 3,
							"revision" : 1,
							"architecture" : "x86",
							"modernui" : 1
						}
,
						"rect" : [ 59.0, 104.0, 640.0, 480.0 ],
						"bglocked" : 0,
						"openinpresentation" : 0,
						"default_fontsize" : 12.0,
						"default_fontface" : 0,
						"default_fontname" : "Arial",
						"gridonopen" : 1,
						"gridsize" : [ 15.0, 15.0 ],
						"gridsnaponopen" : 1,
						"objectsnaponopen" : 1,
						"statusbarvisible" : 2,
						"toolbarvisible" : 1,
						"lefttoolbarpinned" : 0,
						"toptoolbarpinned" : 0,
						"righttoolbarpinned" : 0,
						"bottomtoolbarpinned" : 0,
						"toolbars_unpinned_last_save" : 0,
						"tallnewobj" : 0,
						"boxanimatetime" : 200,
						"enablehscroll" : 1,
						"enablevscroll" : 1,
						"devicewidth" : 0.0,
						"description" : "",
						"digest" : "",
						"tags" : "",
						"style" : "",
						"subpatcher_template" : "",
						"boxes" : [ 							{
								"box" : 								{
									"id" : "obj-41",
									"maxclass" : "newobj",
									"numinlets" : 1,
									"numoutlets" : 0,
									"patching_rect" : [ 50.0, 235.0, 83.0, 22.0 ],
									"style" : "",
									"text" : "send lifeHack"
								}

							}
, 							{
								"box" : 								{
									"id" : "obj-37",
									"maxclass" : "newobj",
									"numinlets" : 2,
									"numoutlets" : 1,
									"outlettype" : [ "" ],
									"patching_rect" : [ 50.0, 145.0, 36.0, 22.0 ],
									"style" : "",
									"text" : "pack"
								}

							}
, 							{
								"box" : 								{
									"id" : "obj-25",
									"maxclass" : "newobj",
									"numinlets" : 7,
									"numoutlets" : 2,
									"outlettype" : [ "int", "" ],
									"patching_rect" : [ 50.0, 190.0, 82.0, 22.0 ],
									"style" : "",
									"text" : "midiformat"
								}

							}
, 							{
								"box" : 								{
									"id" : "obj-23",
									"maxclass" : "newobj",
									"numinlets" : 3,
									"numoutlets" : 2,
									"outlettype" : [ "float", "float" ],
									"patching_rect" : [ 50.0, 100.0, 97.0, 22.0 ],
									"style" : "",
									"text" : "makenote 0 500"
								}

							}
, 							{
								"box" : 								{
									"comment" : "",
									"id" : "obj-88",
									"maxclass" : "inlet",
									"numinlets" : 0,
									"numoutlets" : 1,
									"outlettype" : [ "int" ],
									"patching_rect" : [ 50.0, 40.0, 30.0, 30.0 ],
									"style" : ""
								}

							}
, 							{
								"box" : 								{
									"comment" : "",
									"id" : "obj-89",
									"maxclass" : "inlet",
									"numinlets" : 0,
									"numoutlets" : 1,
									"outlettype" : [ "int" ],
									"patching_rect" : [ 92.0, 40.0, 30.0, 30.0 ],
									"style" : ""
								}

							}
 ],
						"lines" : [ 							{
								"patchline" : 								{
									"destination" : [ "obj-37", 1 ],
									"disabled" : 0,
									"hidden" : 0,
									"source" : [ "obj-23", 1 ]
								}

							}
, 							{
								"patchline" : 								{
									"destination" : [ "obj-37", 0 ],
									"disabled" : 0,
									"hidden" : 0,
									"source" : [ "obj-23", 0 ]
								}

							}
, 							{
								"patchline" : 								{
									"destination" : [ "obj-41", 0 ],
									"disabled" : 0,
									"hidden" : 0,
									"source" : [ "obj-25", 0 ]
								}

							}
, 							{
								"patchline" : 								{
									"destination" : [ "obj-25", 0 ],
									"disabled" : 0,
									"hidden" : 0,
									"source" : [ "obj-37", 0 ]
								}

							}
, 							{
								"patchline" : 								{
									"destination" : [ "obj-23", 0 ],
									"disabled" : 0,
									"hidden" : 0,
									"source" : [ "obj-88", 0 ]
								}

							}
, 							{
								"patchline" : 								{
									"destination" : [ "obj-23", 1 ],
									"disabled" : 0,
									"hidden" : 0,
									"source" : [ "obj-89", 0 ]
								}

							}
 ]
					}
,
					"patching_rect" : [ 1020.0, 465.0, 117.0, 22.0 ],
					"saved_object_attributes" : 					{
						"description" : "",
						"digest" : "",
						"globalpatchername" : "",
						"style" : "",
						"tags" : ""
					}
,
					"style" : "",
					"text" : "p life hack keyboard"
				}

			}
, 			{
				"box" : 				{
					"id" : "obj-87",
					"maxclass" : "newobj",
					"numinlets" : 1,
					"numoutlets" : 1,
					"outlettype" : [ "" ],
					"patching_rect" : [ 1020.0, 600.0, 190.0, 22.0 ],
					"style" : "",
					"text" : "loadmess read subject3fftRight.jxf"
				}

			}
, 			{
				"box" : 				{
					"id" : "obj-86",
					"maxclass" : "newobj",
					"numinlets" : 1,
					"numoutlets" : 1,
					"outlettype" : [ "" ],
					"patching_rect" : [ 1020.0, 510.0, 182.0, 22.0 ],
					"style" : "",
					"text" : "loadmess read subject3fftLeft.jxf"
				}

			}
, 			{
				"box" : 				{
					"fontname" : "Arial",
					"fontsize" : 12.0,
					"id" : "obj-81",
					"maxclass" : "newobj",
					"numinlets" : 1,
					"numoutlets" : 2,
					"outlettype" : [ "jit_matrix", "" ],
					"patching_rect" : [ 1020.0, 555.0, 194.0, 22.0 ],
					"style" : "",
					"text" : "jit.matrix left 1 float32 2049 73 128"
				}

			}
, 			{
				"box" : 				{
					"fontname" : "Arial",
					"fontsize" : 12.0,
					"id" : "obj-82",
					"maxclass" : "newobj",
					"numinlets" : 1,
					"numoutlets" : 2,
					"outlettype" : [ "jit_matrix", "" ],
					"patching_rect" : [ 1020.0, 645.0, 201.0, 22.0 ],
					"style" : "",
					"text" : "jit.matrix right 1 float32 2049 73 128"
				}

			}
, 			{
				"box" : 				{
					"fontname" : "Arial",
					"fontsize" : 12.0,
					"id" : "obj-44",
					"maxclass" : "newobj",
					"numinlets" : 1,
					"numoutlets" : 1,
					"outlettype" : [ "int" ],
					"patcher" : 					{
						"fileversion" : 1,
						"appversion" : 						{
							"major" : 7,
							"minor" : 3,
							"revision" : 1,
							"architecture" : "x86",
							"modernui" : 1
						}
,
						"rect" : [ 291.0, 258.0, 339.0, 221.0 ],
						"bglocked" : 0,
						"openinpresentation" : 0,
						"default_fontsize" : 12.0,
						"default_fontface" : 0,
						"default_fontname" : "Arial",
						"gridonopen" : 1,
						"gridsize" : [ 15.0, 15.0 ],
						"gridsnaponopen" : 1,
						"objectsnaponopen" : 1,
						"statusbarvisible" : 2,
						"toolbarvisible" : 1,
						"lefttoolbarpinned" : 0,
						"toptoolbarpinned" : 0,
						"righttoolbarpinned" : 0,
						"bottomtoolbarpinned" : 0,
						"toolbars_unpinned_last_save" : 0,
						"tallnewobj" : 0,
						"boxanimatetime" : 200,
						"enablehscroll" : 1,
						"enablevscroll" : 1,
						"devicewidth" : 0.0,
						"description" : "",
						"digest" : "",
						"tags" : "",
						"style" : "",
						"subpatcher_template" : "",
						"boxes" : [ 							{
								"box" : 								{
									"comment" : "",
									"id" : "obj-2",
									"maxclass" : "outlet",
									"numinlets" : 1,
									"numoutlets" : 0,
									"patching_rect" : [ 30.0, 180.0, 25.0, 25.0 ],
									"style" : ""
								}

							}
, 							{
								"box" : 								{
									"comment" : "",
									"id" : "obj-1",
									"maxclass" : "inlet",
									"numinlets" : 0,
									"numoutlets" : 1,
									"outlettype" : [ "float" ],
									"patching_rect" : [ 30.0, 30.0, 25.0, 25.0 ],
									"style" : ""
								}

							}
, 							{
								"box" : 								{
									"fontname" : "Arial",
									"fontsize" : 12.0,
									"id" : "obj-92",
									"linecount" : 5,
									"maxclass" : "comment",
									"numinlets" : 1,
									"numoutlets" : 0,
									"patching_rect" : [ 120.0, 75.0, 192.0, 74.0 ],
									"style" : "",
									"text" : "Since the elevation of 0 equals 45 degrees downwards, the input must be transformed to make the elevation pan dial seem intuitive (down is down etc.)."
								}

							}
, 							{
								"box" : 								{
									"fontname" : "Arial",
									"fontsize" : 12.0,
									"id" : "obj-88",
									"maxclass" : "newobj",
									"numinlets" : 2,
									"numoutlets" : 1,
									"outlettype" : [ "int" ],
									"patching_rect" : [ 75.0, 135.0, 41.0, 22.0 ],
									"style" : "",
									"text" : "+ 128"
								}

							}
, 							{
								"box" : 								{
									"fontname" : "Arial",
									"fontsize" : 12.0,
									"id" : "obj-85",
									"maxclass" : "newobj",
									"numinlets" : 3,
									"numoutlets" : 2,
									"outlettype" : [ "int", "int" ],
									"patching_rect" : [ 30.0, 105.0, 64.0, 22.0 ],
									"style" : "",
									"text" : "split 0 112"
								}

							}
, 							{
								"box" : 								{
									"fontname" : "Arial",
									"fontsize" : 12.0,
									"id" : "obj-82",
									"maxclass" : "newobj",
									"numinlets" : 2,
									"numoutlets" : 1,
									"outlettype" : [ "int" ],
									"patching_rect" : [ 30.0, 75.0, 32.5, 22.0 ],
									"style" : "",
									"text" : "- 15"
								}

							}
 ],
						"lines" : [ 							{
								"patchline" : 								{
									"destination" : [ "obj-82", 0 ],
									"disabled" : 0,
									"hidden" : 0,
									"source" : [ "obj-1", 0 ]
								}

							}
, 							{
								"patchline" : 								{
									"destination" : [ "obj-85", 0 ],
									"disabled" : 0,
									"hidden" : 0,
									"source" : [ "obj-82", 0 ]
								}

							}
, 							{
								"patchline" : 								{
									"destination" : [ "obj-2", 0 ],
									"disabled" : 0,
									"hidden" : 0,
									"source" : [ "obj-85", 0 ]
								}

							}
, 							{
								"patchline" : 								{
									"destination" : [ "obj-88", 0 ],
									"disabled" : 0,
									"hidden" : 0,
									"source" : [ "obj-85", 1 ]
								}

							}
, 							{
								"patchline" : 								{
									"destination" : [ "obj-2", 0 ],
									"disabled" : 0,
									"hidden" : 0,
									"midpoints" : [ 84.5, 169.0, 39.5, 169.0 ],
									"source" : [ "obj-88", 0 ]
								}

							}
 ]
					}
,
					"patching_rect" : [ 165.0, 555.0, 93.0, 22.0 ],
					"saved_object_attributes" : 					{
						"description" : "",
						"digest" : "",
						"globalpatchername" : "",
						"style" : "",
						"tags" : ""
					}
,
					"style" : "",
					"text" : "p elevDialScale"
				}

			}
, 			{
				"box" : 				{
					"clip" : 0,
					"degrees" : 360,
					"id" : "obj-48",
					"maxclass" : "dial",
					"numinlets" : 1,
					"numoutlets" : 1,
					"outlettype" : [ "float" ],
					"parameter_enable" : 0,
					"patching_rect" : [ 165.0, 450.0, 90.0, 90.0 ],
					"presentation" : 1,
					"presentation_rect" : [ 989.666687, 250.333344, 90.0, 90.0 ],
					"style" : "",
					"vtracking" : 0
				}

			}
, 			{
				"box" : 				{
					"degrees" : 180,
					"id" : "obj-49",
					"maxclass" : "dial",
					"numinlets" : 1,
					"numoutlets" : 1,
					"outlettype" : [ "float" ],
					"parameter_enable" : 0,
					"patching_rect" : [ 30.0, 450.0, 90.0, 90.0 ],
					"presentation" : 1,
					"presentation_rect" : [ 884.666687, 250.333344, 90.0, 90.0 ],
					"size" : 73.0,
					"style" : "",
					"vtracking" : 0
				}

			}
, 			{
				"box" : 				{
					"id" : "obj-42",
					"maxclass" : "newobj",
					"numinlets" : 0,
					"numoutlets" : 1,
					"outlettype" : [ "" ],
					"patching_rect" : [ 90.0, 165.0, 95.0, 22.0 ],
					"style" : "",
					"text" : "receive lifeHack"
				}

			}
, 			{
				"box" : 				{
					"id" : "obj-9",
					"maxclass" : "kslider",
					"numinlets" : 2,
					"numoutlets" : 2,
					"outlettype" : [ "int", "int" ],
					"parameter_enable" : 0,
					"patching_rect" : [ 1020.0, 390.0, 336.0, 53.0 ],
					"presentation" : 1,
					"presentation_rect" : [ 29.666668, 640.333313, 1008.0, 144.0 ],
					"style" : ""
				}

			}
, 			{
				"box" : 				{
					"floatoutput" : 1,
					"id" : "obj-84",
					"maxclass" : "dial",
					"numinlets" : 1,
					"numoutlets" : 1,
					"outlettype" : [ "float" ],
					"parameter_enable" : 0,
					"patching_rect" : [ 1020.0, 195.0, 40.0, 40.0 ],
					"presentation" : 1,
					"presentation_rect" : [ 404.666656, 430.333344, 40.0, 40.0 ],
					"size" : 1.0,
					"style" : "",
					"vtracking" : 0
				}

			}
, 			{
				"box" : 				{
					"floatoutput" : 1,
					"id" : "obj-78",
					"maxclass" : "dial",
					"numinlets" : 1,
					"numoutlets" : 1,
					"outlettype" : [ "float" ],
					"parameter_enable" : 0,
					"patching_rect" : [ 1155.0, 195.0, 40.0, 40.0 ],
					"presentation" : 1,
					"presentation_rect" : [ 404.666656, 505.333344, 40.0, 40.0 ],
					"size" : 200.0,
					"style" : "",
					"vtracking" : 0
				}

			}
, 			{
				"box" : 				{
					"floatoutput" : 1,
					"id" : "obj-76",
					"maxclass" : "dial",
					"numinlets" : 1,
					"numoutlets" : 1,
					"outlettype" : [ "float" ],
					"parameter_enable" : 0,
					"patching_rect" : [ 1020.0, 45.0, 40.0, 40.0 ],
					"presentation" : 1,
					"presentation_rect" : [ 284.666656, 430.333344, 40.0, 40.0 ],
					"size" : 4000.0,
					"style" : "",
					"vtracking" : 0
				}

			}
, 			{
				"box" : 				{
					"floatoutput" : 1,
					"id" : "obj-75",
					"maxclass" : "dial",
					"numinlets" : 1,
					"numoutlets" : 1,
					"outlettype" : [ "float" ],
					"parameter_enable" : 0,
					"patching_rect" : [ 1155.0, 45.0, 40.0, 40.0 ],
					"presentation" : 1,
					"presentation_rect" : [ 284.666656, 505.333344, 40.0, 40.0 ],
					"size" : 1.0,
					"style" : "",
					"vtracking" : 0
				}

			}
, 			{
				"box" : 				{
					"id" : "obj-74",
					"maxclass" : "newobj",
					"numinlets" : 1,
					"numoutlets" : 0,
					"patching_rect" : [ 1155.0, 270.0, 86.0, 22.0 ],
					"style" : "",
					"text" : "send FMindex"
				}

			}
, 			{
				"box" : 				{
					"id" : "obj-73",
					"maxclass" : "newobj",
					"numinlets" : 1,
					"numoutlets" : 0,
					"patching_rect" : [ 1020.0, 270.0, 81.0, 22.0 ],
					"style" : "",
					"text" : "send FMratio"
				}

			}
, 			{
				"box" : 				{
					"id" : "obj-72",
					"maxclass" : "newobj",
					"numinlets" : 1,
					"numoutlets" : 0,
					"patching_rect" : [ 1155.0, 120.0, 87.0, 22.0 ],
					"style" : "",
					"text" : "send AMdepth"
				}

			}
, 			{
				"box" : 				{
					"id" : "obj-71",
					"maxclass" : "newobj",
					"numinlets" : 1,
					"numoutlets" : 0,
					"patching_rect" : [ 1020.0, 120.0, 110.0, 22.0 ],
					"style" : "",
					"text" : "send AMfrequency"
				}

			}
, 			{
				"box" : 				{
					"id" : "obj-63",
					"maxclass" : "dial",
					"min" : 5.0,
					"numinlets" : 1,
					"numoutlets" : 1,
					"outlettype" : [ "float" ],
					"parameter_enable" : 0,
					"patching_rect" : [ 855.0, 735.0, 40.0, 40.0 ],
					"presentation" : 1,
					"presentation_rect" : [ 464.666656, 340.333344, 40.0, 40.0 ],
					"size" : 1000.0,
					"style" : "",
					"vtracking" : 0
				}

			}
, 			{
				"box" : 				{
					"id" : "obj-64",
					"maxclass" : "dial",
					"min" : 5.0,
					"numinlets" : 1,
					"numoutlets" : 1,
					"outlettype" : [ "float" ],
					"parameter_enable" : 0,
					"patching_rect" : [ 480.0, 735.0, 40.0, 40.0 ],
					"presentation" : 1,
					"presentation_rect" : [ 284.666656, 340.333344, 40.0, 40.0 ],
					"size" : 1000.0,
					"style" : "",
					"vtracking" : 0
				}

			}
, 			{
				"box" : 				{
					"id" : "obj-65",
					"maxclass" : "dial",
					"min" : 5.0,
					"numinlets" : 1,
					"numoutlets" : 1,
					"outlettype" : [ "float" ],
					"parameter_enable" : 0,
					"patching_rect" : [ 600.0, 735.0, 40.0, 40.0 ],
					"presentation" : 1,
					"presentation_rect" : [ 344.666656, 340.333344, 40.0, 40.0 ],
					"size" : 1000.0,
					"style" : "",
					"vtracking" : 0
				}

			}
, 			{
				"box" : 				{
					"floatoutput" : 1,
					"id" : "obj-66",
					"maxclass" : "dial",
					"numinlets" : 1,
					"numoutlets" : 1,
					"outlettype" : [ "float" ],
					"parameter_enable" : 0,
					"patching_rect" : [ 720.0, 735.0, 40.0, 40.0 ],
					"presentation" : 1,
					"presentation_rect" : [ 404.666656, 340.333344, 40.0, 40.0 ],
					"size" : 1.0,
					"style" : "",
					"vtracking" : 0
				}

			}
, 			{
				"box" : 				{
					"id" : "obj-67",
					"maxclass" : "newobj",
					"numinlets" : 1,
					"numoutlets" : 0,
					"patching_rect" : [ 855.0, 810.0, 107.0, 22.0 ],
					"style" : "",
					"text" : "send filterRelease"
				}

			}
, 			{
				"box" : 				{
					"id" : "obj-68",
					"maxclass" : "newobj",
					"numinlets" : 1,
					"numoutlets" : 0,
					"patching_rect" : [ 720.0, 810.0, 103.0, 22.0 ],
					"style" : "",
					"text" : "send filterSustain"
				}

			}
, 			{
				"box" : 				{
					"id" : "obj-69",
					"maxclass" : "newobj",
					"numinlets" : 1,
					"numoutlets" : 0,
					"patching_rect" : [ 600.0, 810.0, 97.0, 22.0 ],
					"style" : "",
					"text" : "send filterDecay"
				}

			}
, 			{
				"box" : 				{
					"id" : "obj-70",
					"maxclass" : "newobj",
					"numinlets" : 1,
					"numoutlets" : 0,
					"patching_rect" : [ 480.0, 810.0, 96.0, 22.0 ],
					"style" : "",
					"text" : "send filterAttack"
				}

			}
, 			{
				"box" : 				{
					"id" : "obj-62",
					"maxclass" : "dial",
					"min" : 5.0,
					"numinlets" : 1,
					"numoutlets" : 1,
					"outlettype" : [ "float" ],
					"parameter_enable" : 0,
					"patching_rect" : [ 855.0, 585.0, 40.0, 40.0 ],
					"presentation" : 1,
					"presentation_rect" : [ 209.666672, 505.333344, 40.0, 40.0 ],
					"size" : 1000.0,
					"style" : "",
					"vtracking" : 0
				}

			}
, 			{
				"box" : 				{
					"id" : "obj-61",
					"maxclass" : "dial",
					"min" : 5.0,
					"numinlets" : 1,
					"numoutlets" : 1,
					"outlettype" : [ "float" ],
					"parameter_enable" : 0,
					"patching_rect" : [ 480.0, 585.0, 40.0, 40.0 ],
					"presentation" : 1,
					"presentation_rect" : [ 29.666668, 505.333344, 40.0, 40.0 ],
					"size" : 1000.0,
					"style" : "",
					"vtracking" : 0
				}

			}
, 			{
				"box" : 				{
					"id" : "obj-56",
					"maxclass" : "dial",
					"min" : 5.0,
					"numinlets" : 1,
					"numoutlets" : 1,
					"outlettype" : [ "float" ],
					"parameter_enable" : 0,
					"patching_rect" : [ 600.0, 585.0, 40.0, 40.0 ],
					"presentation" : 1,
					"presentation_rect" : [ 89.666664, 505.333344, 40.0, 40.0 ],
					"size" : 1000.0,
					"style" : "",
					"vtracking" : 0
				}

			}
, 			{
				"box" : 				{
					"floatoutput" : 1,
					"id" : "obj-55",
					"maxclass" : "dial",
					"numinlets" : 1,
					"numoutlets" : 1,
					"outlettype" : [ "float" ],
					"parameter_enable" : 0,
					"patching_rect" : [ 720.0, 585.0, 40.0, 40.0 ],
					"presentation" : 1,
					"presentation_rect" : [ 149.666672, 505.333344, 40.0, 40.0 ],
					"size" : 1.0,
					"style" : "",
					"vtracking" : 0
				}

			}
, 			{
				"box" : 				{
					"id" : "obj-54",
					"maxclass" : "newobj",
					"numinlets" : 1,
					"numoutlets" : 0,
					"patching_rect" : [ 855.0, 660.0, 79.0, 22.0 ],
					"style" : "",
					"text" : "send release"
				}

			}
, 			{
				"box" : 				{
					"id" : "obj-53",
					"maxclass" : "newobj",
					"numinlets" : 1,
					"numoutlets" : 0,
					"patching_rect" : [ 720.0, 660.0, 78.0, 22.0 ],
					"style" : "",
					"text" : "send sustain"
				}

			}
, 			{
				"box" : 				{
					"id" : "obj-52",
					"maxclass" : "newobj",
					"numinlets" : 1,
					"numoutlets" : 0,
					"patching_rect" : [ 600.0, 660.0, 72.0, 22.0 ],
					"style" : "",
					"text" : "send decay"
				}

			}
, 			{
				"box" : 				{
					"id" : "obj-51",
					"maxclass" : "newobj",
					"numinlets" : 1,
					"numoutlets" : 0,
					"patching_rect" : [ 480.0, 660.0, 72.0, 22.0 ],
					"style" : "",
					"text" : "send attack"
				}

			}
, 			{
				"box" : 				{
					"id" : "obj-40",
					"maxclass" : "newobj",
					"numinlets" : 2,
					"numoutlets" : 1,
					"outlettype" : [ "int" ],
					"patching_rect" : [ 855.0, 150.0, 29.5, 22.0 ],
					"style" : "",
					"text" : "+ 1"
				}

			}
, 			{
				"box" : 				{
					"floatoutput" : 1,
					"id" : "obj-39",
					"maxclass" : "dial",
					"min" : 12.0,
					"numinlets" : 1,
					"numoutlets" : 1,
					"outlettype" : [ "float" ],
					"parameter_enable" : 0,
					"patching_rect" : [ 855.0, 285.0, 40.0, 40.0 ],
					"presentation" : 1,
					"presentation_rect" : [ 284.666656, 250.333344, 40.0, 40.0 ],
					"size" : 20000.0,
					"style" : "",
					"vtracking" : 0
				}

			}
, 			{
				"box" : 				{
					"floatoutput" : 1,
					"id" : "obj-38",
					"maxclass" : "dial",
					"numinlets" : 1,
					"numoutlets" : 1,
					"outlettype" : [ "float" ],
					"parameter_enable" : 0,
					"patching_rect" : [ 855.0, 435.0, 40.0, 40.0 ],
					"presentation" : 1,
					"presentation_rect" : [ 344.666656, 250.333344, 40.0, 40.0 ],
					"size" : 1.0,
					"style" : "",
					"vtracking" : 0
				}

			}
, 			{
				"box" : 				{
					"id" : "obj-36",
					"maxclass" : "newobj",
					"numinlets" : 1,
					"numoutlets" : 0,
					"patching_rect" : [ 855.0, 510.0, 96.0, 22.0 ],
					"style" : "",
					"text" : "send resonance"
				}

			}
, 			{
				"box" : 				{
					"id" : "obj-35",
					"maxclass" : "newobj",
					"numinlets" : 1,
					"numoutlets" : 0,
					"patching_rect" : [ 855.0, 360.0, 69.0, 22.0 ],
					"style" : "",
					"text" : "send cutoff"
				}

			}
, 			{
				"box" : 				{
					"id" : "obj-34",
					"maxclass" : "newobj",
					"numinlets" : 1,
					"numoutlets" : 0,
					"patching_rect" : [ 855.0, 210.0, 63.0, 22.0 ],
					"style" : "",
					"text" : "send filter"
				}

			}
, 			{
				"box" : 				{
					"id" : "obj-24",
					"items" : [ "lowpass", ",", "highpass", ",", "bandpass", ",", "bandreject" ],
					"maxclass" : "umenu",
					"numinlets" : 1,
					"numoutlets" : 3,
					"outlettype" : [ "int", "", "" ],
					"parameter_enable" : 0,
					"patching_rect" : [ 855.0, 90.0, 100.0, 22.0 ],
					"presentation" : 1,
					"presentation_rect" : [ 419.666656, 250.333344, 100.0, 22.0 ],
					"style" : ""
				}

			}
, 			{
				"box" : 				{
					"floatoutput" : 1,
					"id" : "obj-33",
					"maxclass" : "dial",
					"min" : -12.0,
					"numinlets" : 1,
					"numoutlets" : 1,
					"outlettype" : [ "float" ],
					"parameter_enable" : 0,
					"patching_rect" : [ 720.0, 435.0, 40.0, 40.0 ],
					"presentation" : 1,
					"presentation_rect" : [ 89.666664, 430.333344, 40.0, 40.0 ],
					"size" : 24.0,
					"style" : "",
					"vtracking" : 0
				}

			}
, 			{
				"box" : 				{
					"floatoutput" : 1,
					"id" : "obj-32",
					"maxclass" : "dial",
					"min" : -12.0,
					"numinlets" : 1,
					"numoutlets" : 1,
					"outlettype" : [ "float" ],
					"parameter_enable" : 0,
					"patching_rect" : [ 600.0, 435.0, 40.0, 40.0 ],
					"presentation" : 1,
					"presentation_rect" : [ 89.666664, 340.333344, 40.0, 40.0 ],
					"size" : 24.0,
					"style" : "",
					"vtracking" : 0
				}

			}
, 			{
				"box" : 				{
					"id" : "obj-31",
					"maxclass" : "dial",
					"min" : -12.0,
					"numinlets" : 1,
					"numoutlets" : 1,
					"outlettype" : [ "float" ],
					"parameter_enable" : 0,
					"patching_rect" : [ 480.0, 435.0, 40.0, 40.0 ],
					"presentation" : 1,
					"presentation_rect" : [ 89.666664, 250.333344, 40.0, 40.0 ],
					"size" : 24.0,
					"style" : "",
					"vtracking" : 0
				}

			}
, 			{
				"box" : 				{
					"floatoutput" : 1,
					"id" : "obj-30",
					"maxclass" : "dial",
					"numinlets" : 1,
					"numoutlets" : 1,
					"outlettype" : [ "float" ],
					"parameter_enable" : 0,
					"patching_rect" : [ 720.0, 285.0, 40.0, 40.0 ],
					"presentation" : 1,
					"presentation_rect" : [ 29.666668, 430.333344, 40.0, 40.0 ],
					"size" : 1.0,
					"style" : "",
					"vtracking" : 0
				}

			}
, 			{
				"box" : 				{
					"floatoutput" : 1,
					"id" : "obj-29",
					"maxclass" : "dial",
					"numinlets" : 1,
					"numoutlets" : 1,
					"outlettype" : [ "float" ],
					"parameter_enable" : 0,
					"patching_rect" : [ 600.0, 285.0, 40.0, 40.0 ],
					"presentation" : 1,
					"presentation_rect" : [ 29.666668, 340.333344, 40.0, 40.0 ],
					"size" : 1.0,
					"style" : "",
					"vtracking" : 0
				}

			}
, 			{
				"box" : 				{
					"floatoutput" : 1,
					"id" : "obj-28",
					"maxclass" : "dial",
					"numinlets" : 1,
					"numoutlets" : 1,
					"outlettype" : [ "float" ],
					"parameter_enable" : 0,
					"patching_rect" : [ 480.0, 285.0, 40.0, 40.0 ],
					"presentation" : 1,
					"presentation_rect" : [ 29.666668, 250.333344, 40.0, 40.0 ],
					"size" : 1.0,
					"style" : "",
					"vtracking" : 0
				}

			}
, 			{
				"box" : 				{
					"id" : "obj-27",
					"maxclass" : "newobj",
					"numinlets" : 2,
					"numoutlets" : 1,
					"outlettype" : [ "int" ],
					"patching_rect" : [ 720.0, 150.0, 29.5, 22.0 ],
					"style" : "",
					"text" : "+ 1"
				}

			}
, 			{
				"box" : 				{
					"id" : "obj-26",
					"maxclass" : "newobj",
					"numinlets" : 2,
					"numoutlets" : 1,
					"outlettype" : [ "int" ],
					"patching_rect" : [ 600.0, 150.0, 29.5, 22.0 ],
					"style" : "",
					"text" : "+ 1"
				}

			}
, 			{
				"box" : 				{
					"id" : "obj-22",
					"maxclass" : "newobj",
					"numinlets" : 2,
					"numoutlets" : 1,
					"outlettype" : [ "int" ],
					"patching_rect" : [ 480.0, 150.0, 29.5, 22.0 ],
					"style" : "",
					"text" : "+ 1"
				}

			}
, 			{
				"box" : 				{
					"id" : "obj-21",
					"items" : [ "sine", ",", "triangle", ",", "sawtooth", ",", "rectangle", ",", "pink", ",", "white" ],
					"maxclass" : "umenu",
					"numinlets" : 1,
					"numoutlets" : 3,
					"outlettype" : [ "int", "", "" ],
					"parameter_enable" : 0,
					"patching_rect" : [ 720.0, 90.0, 100.0, 22.0 ],
					"presentation" : 1,
					"presentation_rect" : [ 164.666672, 430.333344, 100.0, 22.0 ],
					"style" : ""
				}

			}
, 			{
				"box" : 				{
					"id" : "obj-20",
					"items" : [ "sine", ",", "triangle", ",", "sawtooth", ",", "rectangle", ",", "pink", ",", "white" ],
					"maxclass" : "umenu",
					"numinlets" : 1,
					"numoutlets" : 3,
					"outlettype" : [ "int", "", "" ],
					"parameter_enable" : 0,
					"patching_rect" : [ 600.0, 90.0, 100.0, 22.0 ],
					"presentation" : 1,
					"presentation_rect" : [ 164.666672, 340.333344, 100.0, 22.0 ],
					"style" : ""
				}

			}
, 			{
				"box" : 				{
					"id" : "obj-19",
					"items" : [ "sine", ",", "triangle", ",", "sawtooth", ",", "rectangle", ",", "pink", ",", "white" ],
					"maxclass" : "umenu",
					"numinlets" : 1,
					"numoutlets" : 3,
					"outlettype" : [ "int", "", "" ],
					"parameter_enable" : 0,
					"patching_rect" : [ 480.0, 90.0, 100.0, 22.0 ],
					"presentation" : 1,
					"presentation_rect" : [ 164.666672, 250.333344, 100.0, 22.0 ],
					"style" : ""
				}

			}
, 			{
				"box" : 				{
					"id" : "obj-18",
					"maxclass" : "newobj",
					"numinlets" : 1,
					"numoutlets" : 0,
					"patching_rect" : [ 720.0, 510.0, 83.0, 22.0 ],
					"style" : "",
					"text" : "send detune3"
				}

			}
, 			{
				"box" : 				{
					"id" : "obj-17",
					"maxclass" : "newobj",
					"numinlets" : 1,
					"numoutlets" : 0,
					"patching_rect" : [ 600.0, 510.0, 83.0, 22.0 ],
					"style" : "",
					"text" : "send detune2"
				}

			}
, 			{
				"box" : 				{
					"id" : "obj-16",
					"maxclass" : "newobj",
					"numinlets" : 1,
					"numoutlets" : 0,
					"patching_rect" : [ 480.0, 510.0, 83.0, 22.0 ],
					"style" : "",
					"text" : "send detune1"
				}

			}
, 			{
				"box" : 				{
					"id" : "obj-15",
					"maxclass" : "newobj",
					"numinlets" : 1,
					"numoutlets" : 0,
					"patching_rect" : [ 720.0, 360.0, 69.0, 22.0 ],
					"style" : "",
					"text" : "send gain3"
				}

			}
, 			{
				"box" : 				{
					"id" : "obj-14",
					"maxclass" : "newobj",
					"numinlets" : 1,
					"numoutlets" : 0,
					"patching_rect" : [ 600.0, 360.0, 69.0, 22.0 ],
					"style" : "",
					"text" : "send gain2"
				}

			}
, 			{
				"box" : 				{
					"id" : "obj-13",
					"maxclass" : "newobj",
					"numinlets" : 1,
					"numoutlets" : 0,
					"patching_rect" : [ 480.0, 360.0, 69.0, 22.0 ],
					"style" : "",
					"text" : "send gain1"
				}

			}
, 			{
				"box" : 				{
					"id" : "obj-12",
					"maxclass" : "newobj",
					"numinlets" : 1,
					"numoutlets" : 0,
					"patching_rect" : [ 720.0, 210.0, 99.0, 22.0 ],
					"style" : "",
					"text" : "send waveform3"
				}

			}
, 			{
				"box" : 				{
					"id" : "obj-11",
					"maxclass" : "newobj",
					"numinlets" : 1,
					"numoutlets" : 0,
					"patching_rect" : [ 600.0, 210.0, 99.0, 22.0 ],
					"style" : "",
					"text" : "send waveform2"
				}

			}
, 			{
				"box" : 				{
					"id" : "obj-10",
					"maxclass" : "newobj",
					"numinlets" : 1,
					"numoutlets" : 0,
					"patching_rect" : [ 480.0, 210.0, 99.0, 22.0 ],
					"style" : "",
					"text" : "send waveform1"
				}

			}
, 			{
				"box" : 				{
					"id" : "obj-8",
					"items" : [ "to Max 1", ",", "to Max 2" ],
					"maxclass" : "umenu",
					"numinlets" : 1,
					"numoutlets" : 3,
					"outlettype" : [ "int", "", "" ],
					"parameter_enable" : 0,
					"patching_rect" : [ 30.0, 105.0, 100.0, 22.0 ],
					"presentation" : 1,
					"presentation_rect" : [ 44.666668, 580.333313, 150.0, 22.0 ],
					"style" : ""
				}

			}
, 			{
				"box" : 				{
					"id" : "obj-7",
					"maxclass" : "newobj",
					"numinlets" : 1,
					"numoutlets" : 1,
					"outlettype" : [ "" ],
					"patching_rect" : [ 30.0, 15.0, 121.0, 22.0 ],
					"style" : "",
					"text" : "loadmess controllers"
				}

			}
, 			{
				"box" : 				{
					"id" : "obj-6",
					"maxclass" : "newobj",
					"numinlets" : 2,
					"numoutlets" : 1,
					"outlettype" : [ "" ],
					"patching_rect" : [ 30.0, 60.0, 52.0, 22.0 ],
					"style" : "",
					"text" : "midiinfo"
				}

			}
, 			{
				"box" : 				{
					"id" : "obj-5",
					"maxclass" : "newobj",
					"numinlets" : 1,
					"numoutlets" : 8,
					"outlettype" : [ "", "", "", "int", "int", "", "int", "" ],
					"patching_rect" : [ 30.0, 225.0, 92.5, 22.0 ],
					"style" : "",
					"text" : "midiparse"
				}

			}
, 			{
				"box" : 				{
					"id" : "obj-4",
					"maxclass" : "newobj",
					"numinlets" : 1,
					"numoutlets" : 1,
					"outlettype" : [ "int" ],
					"patching_rect" : [ 30.0, 165.0, 42.0, 22.0 ],
					"style" : "",
					"text" : "midiin"
				}

			}
, 			{
				"box" : 				{
					"id" : "obj-3",
					"maxclass" : "ezdac~",
					"numinlets" : 2,
					"numoutlets" : 0,
					"patching_rect" : [ 870.0, 1350.0, 45.0, 45.0 ],
					"presentation" : 1,
					"presentation_rect" : [ 1049.666626, 730.333313, 45.0, 45.0 ],
					"style" : ""
				}

			}
, 			{
				"box" : 				{
					"id" : "obj-2",
					"maxclass" : "live.gain~",
					"numinlets" : 2,
					"numoutlets" : 5,
					"outlettype" : [ "signal", "signal", "", "float", "list" ],
					"parameter_enable" : 1,
					"patching_rect" : [ 870.0, 1185.0, 48.0, 136.0 ],
					"presentation" : 1,
					"presentation_rect" : [ 1049.666626, 580.333313, 48.0, 136.0 ],
					"saved_attribute_attributes" : 					{
						"valueof" : 						{
							"parameter_longname" : "live.gain~",
							"parameter_shortname" : "live.gain~",
							"parameter_type" : 0,
							"parameter_mmin" : -70.0,
							"parameter_mmax" : 6.0,
							"parameter_initial" : [ 0.0 ],
							"parameter_unitstyle" : 4
						}

					}
,
					"varname" : "live.gain~"
				}

			}
, 			{
				"box" : 				{
					"id" : "obj-1",
					"maxclass" : "newobj",
					"numinlets" : 1,
					"numoutlets" : 1,
					"outlettype" : [ "signal" ],
					"patching_rect" : [ 30.0, 285.0, 138.0, 22.0 ],
					"style" : "",
					"text" : "poly~ voice 16 @steal 1"
				}

			}
, 			{
				"box" : 				{
					"angle" : 270.0,
					"grad1" : [ 0.960784, 0.827451, 0.156863, 1.0 ],
					"grad2" : [ 0.290196, 0.309804, 0.301961, 1.0 ],
					"id" : "obj-43",
					"maxclass" : "panel",
					"mode" : 1,
					"numinlets" : 1,
					"numoutlets" : 0,
					"patching_rect" : [ 480.0, 60.0, 480.0, 180.0 ],
					"presentation" : 1,
					"presentation_rect" : [ 29.666668, 220.333344, 240.0, 330.0 ],
					"proportion" : 0.39,
					"style" : ""
				}

			}
, 			{
				"box" : 				{
					"angle" : 270.0,
					"grad1" : [ 1.0, 1.0, 1.0, 1.0 ],
					"grad2" : [ 0.290196, 0.309804, 0.301961, 1.0 ],
					"id" : "obj-95",
					"maxclass" : "panel",
					"mode" : 1,
					"numinlets" : 1,
					"numoutlets" : 0,
					"patching_rect" : [ 480.0, 255.0, 480.0, 135.0 ],
					"presentation" : 1,
					"presentation_rect" : [ 284.666656, 220.333344, 240.0, 330.0 ],
					"proportion" : 0.39,
					"style" : ""
				}

			}
, 			{
				"box" : 				{
					"angle" : 270.0,
					"grad1" : [ 0.952941, 0.564706, 0.098039, 1.0 ],
					"grad2" : [ 0.290196, 0.309804, 0.301961, 1.0 ],
					"id" : "obj-102",
					"maxclass" : "panel",
					"mode" : 1,
					"numinlets" : 1,
					"numoutlets" : 0,
					"patching_rect" : [ 480.0, 405.0, 480.0, 135.0 ],
					"presentation" : 1,
					"presentation_rect" : [ 884.666687, 220.333344, 240.0, 330.0 ],
					"proportion" : 0.39,
					"style" : ""
				}

			}
, 			{
				"box" : 				{
					"angle" : 270.0,
					"grad1" : [ 0.92549, 0.364706, 0.341176, 1.0 ],
					"grad2" : [ 0.290196, 0.309804, 0.301961, 1.0 ],
					"id" : "obj-115",
					"maxclass" : "panel",
					"mode" : 1,
					"numinlets" : 1,
					"numoutlets" : 0,
					"patching_rect" : [ 480.0, 555.0, 480.0, 285.0 ],
					"presentation" : 1,
					"presentation_rect" : [ 29.666668, 565.333313, 1095.0, 225.0 ],
					"proportion" : 0.39,
					"style" : ""
				}

			}
 ],
		"lines" : [ 			{
				"patchline" : 				{
					"destination" : [ "obj-92", 0 ],
					"disabled" : 0,
					"hidden" : 0,
					"source" : [ "obj-1", 0 ]
				}

			}
, 			{
				"patchline" : 				{
					"destination" : [ "obj-48", 0 ],
					"disabled" : 0,
					"hidden" : 0,
					"source" : [ "obj-100", 0 ]
				}

			}
, 			{
				"patchline" : 				{
					"destination" : [ "obj-89", 0 ],
					"disabled" : 0,
					"hidden" : 0,
					"source" : [ "obj-101", 0 ]
				}

			}
, 			{
				"patchline" : 				{
					"destination" : [ "obj-49", 0 ],
					"disabled" : 0,
					"hidden" : 0,
					"source" : [ "obj-103", 0 ]
				}

			}
, 			{
				"patchline" : 				{
					"destination" : [ "obj-91", 0 ],
					"disabled" : 0,
					"hidden" : 0,
					"source" : [ "obj-104", 0 ]
				}

			}
, 			{
				"patchline" : 				{
					"destination" : [ "obj-57", 0 ],
					"disabled" : 0,
					"hidden" : 0,
					"source" : [ "obj-106", 0 ]
				}

			}
, 			{
				"patchline" : 				{
					"destination" : [ "obj-122", 0 ],
					"disabled" : 0,
					"hidden" : 0,
					"source" : [ "obj-119", 0 ]
				}

			}
, 			{
				"patchline" : 				{
					"destination" : [ "obj-119", 0 ],
					"disabled" : 0,
					"hidden" : 0,
					"source" : [ "obj-121", 0 ]
				}

			}
, 			{
				"patchline" : 				{
					"destination" : [ "obj-141", 0 ],
					"disabled" : 0,
					"hidden" : 0,
					"source" : [ "obj-121", 0 ]
				}

			}
, 			{
				"patchline" : 				{
					"destination" : [ "obj-45", 0 ],
					"disabled" : 0,
					"hidden" : 0,
					"source" : [ "obj-123", 0 ]
				}

			}
, 			{
				"patchline" : 				{
					"destination" : [ "obj-106", 0 ],
					"disabled" : 0,
					"hidden" : 0,
					"source" : [ "obj-126", 0 ]
				}

			}
, 			{
				"patchline" : 				{
					"destination" : [ "obj-91", 0 ],
					"disabled" : 0,
					"hidden" : 0,
					"source" : [ "obj-132", 0 ]
				}

			}
, 			{
				"patchline" : 				{
					"destination" : [ "obj-132", 0 ],
					"disabled" : 0,
					"hidden" : 0,
					"source" : [ "obj-134", 0 ]
				}

			}
, 			{
				"patchline" : 				{
					"destination" : [ "obj-122", 0 ],
					"disabled" : 0,
					"hidden" : 0,
					"source" : [ "obj-141", 0 ]
				}

			}
, 			{
				"patchline" : 				{
					"destination" : [ "obj-89", 2 ],
					"disabled" : 0,
					"hidden" : 0,
					"source" : [ "obj-149", 0 ]
				}

			}
, 			{
				"patchline" : 				{
					"destination" : [ "obj-89", 1 ],
					"disabled" : 0,
					"hidden" : 0,
					"source" : [ "obj-150", 0 ]
				}

			}
, 			{
				"patchline" : 				{
					"destination" : [ "obj-22", 0 ],
					"disabled" : 0,
					"hidden" : 0,
					"source" : [ "obj-19", 0 ]
				}

			}
, 			{
				"patchline" : 				{
					"destination" : [ "obj-3", 1 ],
					"disabled" : 0,
					"hidden" : 0,
					"source" : [ "obj-2", 1 ]
				}

			}
, 			{
				"patchline" : 				{
					"destination" : [ "obj-3", 0 ],
					"disabled" : 0,
					"hidden" : 0,
					"source" : [ "obj-2", 0 ]
				}

			}
, 			{
				"patchline" : 				{
					"destination" : [ "obj-26", 0 ],
					"disabled" : 0,
					"hidden" : 0,
					"source" : [ "obj-20", 0 ]
				}

			}
, 			{
				"patchline" : 				{
					"destination" : [ "obj-27", 0 ],
					"disabled" : 0,
					"hidden" : 0,
					"source" : [ "obj-21", 0 ]
				}

			}
, 			{
				"patchline" : 				{
					"destination" : [ "obj-10", 0 ],
					"disabled" : 0,
					"hidden" : 0,
					"source" : [ "obj-22", 0 ]
				}

			}
, 			{
				"patchline" : 				{
					"destination" : [ "obj-46", 0 ],
					"disabled" : 0,
					"hidden" : 0,
					"source" : [ "obj-23", 0 ]
				}

			}
, 			{
				"patchline" : 				{
					"destination" : [ "obj-40", 0 ],
					"disabled" : 0,
					"hidden" : 0,
					"source" : [ "obj-24", 0 ]
				}

			}
, 			{
				"patchline" : 				{
					"destination" : [ "obj-96", 0 ],
					"disabled" : 0,
					"hidden" : 0,
					"source" : [ "obj-25", 0 ]
				}

			}
, 			{
				"patchline" : 				{
					"destination" : [ "obj-11", 0 ],
					"disabled" : 0,
					"hidden" : 0,
					"source" : [ "obj-26", 0 ]
				}

			}
, 			{
				"patchline" : 				{
					"destination" : [ "obj-12", 0 ],
					"disabled" : 0,
					"hidden" : 0,
					"source" : [ "obj-27", 0 ]
				}

			}
, 			{
				"patchline" : 				{
					"destination" : [ "obj-13", 0 ],
					"disabled" : 0,
					"hidden" : 0,
					"source" : [ "obj-28", 0 ]
				}

			}
, 			{
				"patchline" : 				{
					"destination" : [ "obj-14", 0 ],
					"disabled" : 0,
					"hidden" : 0,
					"source" : [ "obj-29", 0 ]
				}

			}
, 			{
				"patchline" : 				{
					"destination" : [ "obj-15", 0 ],
					"disabled" : 0,
					"hidden" : 0,
					"source" : [ "obj-30", 0 ]
				}

			}
, 			{
				"patchline" : 				{
					"destination" : [ "obj-16", 0 ],
					"disabled" : 0,
					"hidden" : 0,
					"source" : [ "obj-31", 0 ]
				}

			}
, 			{
				"patchline" : 				{
					"destination" : [ "obj-17", 0 ],
					"disabled" : 0,
					"hidden" : 0,
					"source" : [ "obj-32", 0 ]
				}

			}
, 			{
				"patchline" : 				{
					"destination" : [ "obj-18", 0 ],
					"disabled" : 0,
					"hidden" : 0,
					"source" : [ "obj-33", 0 ]
				}

			}
, 			{
				"patchline" : 				{
					"destination" : [ "obj-109", 0 ],
					"disabled" : 0,
					"hidden" : 0,
					"source" : [ "obj-37", 0 ]
				}

			}
, 			{
				"patchline" : 				{
					"destination" : [ "obj-36", 0 ],
					"disabled" : 0,
					"hidden" : 0,
					"source" : [ "obj-38", 0 ]
				}

			}
, 			{
				"patchline" : 				{
					"destination" : [ "obj-35", 0 ],
					"disabled" : 0,
					"hidden" : 0,
					"source" : [ "obj-39", 0 ]
				}

			}
, 			{
				"patchline" : 				{
					"destination" : [ "obj-5", 0 ],
					"disabled" : 0,
					"hidden" : 0,
					"source" : [ "obj-4", 0 ]
				}

			}
, 			{
				"patchline" : 				{
					"destination" : [ "obj-34", 0 ],
					"disabled" : 0,
					"hidden" : 0,
					"source" : [ "obj-40", 0 ]
				}

			}
, 			{
				"patchline" : 				{
					"destination" : [ "obj-96", 2 ],
					"disabled" : 0,
					"hidden" : 0,
					"source" : [ "obj-41", 1 ]
				}

			}
, 			{
				"patchline" : 				{
					"destination" : [ "obj-5", 0 ],
					"disabled" : 0,
					"hidden" : 0,
					"source" : [ "obj-42", 0 ]
				}

			}
, 			{
				"patchline" : 				{
					"destination" : [ "obj-148", 0 ],
					"disabled" : 0,
					"hidden" : 0,
					"source" : [ "obj-44", 0 ]
				}

			}
, 			{
				"patchline" : 				{
					"destination" : [ "obj-47", 0 ],
					"disabled" : 0,
					"hidden" : 0,
					"source" : [ "obj-45", 0 ]
				}

			}
, 			{
				"patchline" : 				{
					"destination" : [ "obj-50", 0 ],
					"disabled" : 0,
					"hidden" : 0,
					"source" : [ "obj-46", 0 ]
				}

			}
, 			{
				"patchline" : 				{
					"destination" : [ "obj-59", 1 ],
					"disabled" : 0,
					"hidden" : 0,
					"source" : [ "obj-47", 0 ]
				}

			}
, 			{
				"patchline" : 				{
					"destination" : [ "obj-44", 0 ],
					"disabled" : 0,
					"hidden" : 0,
					"source" : [ "obj-48", 0 ]
				}

			}
, 			{
				"patchline" : 				{
					"destination" : [ "obj-147", 0 ],
					"disabled" : 0,
					"hidden" : 0,
					"source" : [ "obj-49", 0 ]
				}

			}
, 			{
				"patchline" : 				{
					"destination" : [ "obj-1", 0 ],
					"disabled" : 0,
					"hidden" : 0,
					"source" : [ "obj-5", 7 ]
				}

			}
, 			{
				"patchline" : 				{
					"destination" : [ "obj-77", 1 ],
					"disabled" : 0,
					"hidden" : 0,
					"source" : [ "obj-50", 0 ]
				}

			}
, 			{
				"patchline" : 				{
					"destination" : [ "obj-53", 0 ],
					"disabled" : 0,
					"hidden" : 0,
					"source" : [ "obj-55", 0 ]
				}

			}
, 			{
				"patchline" : 				{
					"destination" : [ "obj-52", 0 ],
					"disabled" : 0,
					"hidden" : 0,
					"source" : [ "obj-56", 0 ]
				}

			}
, 			{
				"patchline" : 				{
					"destination" : [ "obj-58", 0 ],
					"disabled" : 0,
					"hidden" : 0,
					"source" : [ "obj-57", 0 ]
				}

			}
, 			{
				"patchline" : 				{
					"destination" : [ "obj-85", 1 ],
					"disabled" : 0,
					"hidden" : 0,
					"source" : [ "obj-58", 0 ]
				}

			}
, 			{
				"patchline" : 				{
					"destination" : [ "obj-88", 1 ],
					"disabled" : 0,
					"hidden" : 0,
					"source" : [ "obj-58", 0 ]
				}

			}
, 			{
				"patchline" : 				{
					"destination" : [ "obj-85", 0 ],
					"disabled" : 0,
					"hidden" : 0,
					"source" : [ "obj-59", 0 ]
				}

			}
, 			{
				"patchline" : 				{
					"destination" : [ "obj-8", 0 ],
					"disabled" : 0,
					"hidden" : 0,
					"source" : [ "obj-6", 0 ]
				}

			}
, 			{
				"patchline" : 				{
					"destination" : [ "obj-51", 0 ],
					"disabled" : 0,
					"hidden" : 0,
					"source" : [ "obj-61", 0 ]
				}

			}
, 			{
				"patchline" : 				{
					"destination" : [ "obj-54", 0 ],
					"disabled" : 0,
					"hidden" : 0,
					"source" : [ "obj-62", 0 ]
				}

			}
, 			{
				"patchline" : 				{
					"destination" : [ "obj-67", 0 ],
					"disabled" : 0,
					"hidden" : 0,
					"source" : [ "obj-63", 0 ]
				}

			}
, 			{
				"patchline" : 				{
					"destination" : [ "obj-70", 0 ],
					"disabled" : 0,
					"hidden" : 0,
					"source" : [ "obj-64", 0 ]
				}

			}
, 			{
				"patchline" : 				{
					"destination" : [ "obj-69", 0 ],
					"disabled" : 0,
					"hidden" : 0,
					"source" : [ "obj-65", 0 ]
				}

			}
, 			{
				"patchline" : 				{
					"destination" : [ "obj-68", 0 ],
					"disabled" : 0,
					"hidden" : 0,
					"source" : [ "obj-66", 0 ]
				}

			}
, 			{
				"patchline" : 				{
					"destination" : [ "obj-6", 0 ],
					"disabled" : 0,
					"hidden" : 0,
					"source" : [ "obj-7", 0 ]
				}

			}
, 			{
				"patchline" : 				{
					"destination" : [ "obj-72", 0 ],
					"disabled" : 0,
					"hidden" : 0,
					"source" : [ "obj-75", 0 ]
				}

			}
, 			{
				"patchline" : 				{
					"destination" : [ "obj-71", 0 ],
					"disabled" : 0,
					"hidden" : 0,
					"source" : [ "obj-76", 0 ]
				}

			}
, 			{
				"patchline" : 				{
					"destination" : [ "obj-88", 0 ],
					"disabled" : 0,
					"hidden" : 0,
					"source" : [ "obj-77", 0 ]
				}

			}
, 			{
				"patchline" : 				{
					"destination" : [ "obj-74", 0 ],
					"disabled" : 0,
					"hidden" : 0,
					"source" : [ "obj-78", 0 ]
				}

			}
, 			{
				"patchline" : 				{
					"destination" : [ "obj-4", 0 ],
					"disabled" : 0,
					"hidden" : 0,
					"source" : [ "obj-8", 1 ]
				}

			}
, 			{
				"patchline" : 				{
					"destination" : [ "obj-96", 1 ],
					"disabled" : 0,
					"hidden" : 0,
					"source" : [ "obj-83", 0 ]
				}

			}
, 			{
				"patchline" : 				{
					"destination" : [ "obj-73", 0 ],
					"disabled" : 0,
					"hidden" : 0,
					"source" : [ "obj-84", 0 ]
				}

			}
, 			{
				"patchline" : 				{
					"destination" : [ "obj-2", 1 ],
					"disabled" : 0,
					"hidden" : 0,
					"source" : [ "obj-85", 0 ]
				}

			}
, 			{
				"patchline" : 				{
					"destination" : [ "obj-81", 0 ],
					"disabled" : 0,
					"hidden" : 0,
					"source" : [ "obj-86", 0 ]
				}

			}
, 			{
				"patchline" : 				{
					"destination" : [ "obj-82", 0 ],
					"disabled" : 0,
					"hidden" : 0,
					"source" : [ "obj-87", 0 ]
				}

			}
, 			{
				"patchline" : 				{
					"destination" : [ "obj-2", 0 ],
					"disabled" : 0,
					"hidden" : 0,
					"source" : [ "obj-88", 0 ]
				}

			}
, 			{
				"patchline" : 				{
					"destination" : [ "obj-59", 0 ],
					"disabled" : 0,
					"hidden" : 0,
					"source" : [ "obj-89", 1 ]
				}

			}
, 			{
				"patchline" : 				{
					"destination" : [ "obj-77", 0 ],
					"disabled" : 0,
					"hidden" : 0,
					"source" : [ "obj-89", 0 ]
				}

			}
, 			{
				"patchline" : 				{
					"destination" : [ "obj-90", 1 ],
					"disabled" : 0,
					"hidden" : 0,
					"source" : [ "obj-9", 1 ]
				}

			}
, 			{
				"patchline" : 				{
					"destination" : [ "obj-90", 0 ],
					"disabled" : 0,
					"hidden" : 0,
					"source" : [ "obj-9", 0 ]
				}

			}
, 			{
				"patchline" : 				{
					"destination" : [ "obj-123", 0 ],
					"disabled" : 0,
					"hidden" : 0,
					"source" : [ "obj-91", 2 ]
				}

			}
, 			{
				"patchline" : 				{
					"destination" : [ "obj-126", 0 ],
					"disabled" : 0,
					"hidden" : 0,
					"source" : [ "obj-91", 3 ]
				}

			}
, 			{
				"patchline" : 				{
					"destination" : [ "obj-23", 0 ],
					"disabled" : 0,
					"hidden" : 0,
					"source" : [ "obj-91", 1 ]
				}

			}
, 			{
				"patchline" : 				{
					"destination" : [ "obj-89", 1 ],
					"disabled" : 0,
					"hidden" : 0,
					"source" : [ "obj-91", 0 ]
				}

			}
, 			{
				"patchline" : 				{
					"destination" : [ "obj-105", 0 ],
					"disabled" : 0,
					"hidden" : 0,
					"source" : [ "obj-96", 1 ]
				}

			}
, 			{
				"patchline" : 				{
					"destination" : [ "obj-105", 0 ],
					"disabled" : 0,
					"hidden" : 0,
					"source" : [ "obj-96", 0 ]
				}

			}
, 			{
				"patchline" : 				{
					"destination" : [ "obj-89", 0 ],
					"disabled" : 0,
					"hidden" : 0,
					"source" : [ "obj-97", 0 ]
				}

			}
, 			{
				"patchline" : 				{
					"destination" : [ "obj-9", 0 ],
					"disabled" : 0,
					"hidden" : 0,
					"source" : [ "obj-98", 0 ]
				}

			}
 ],
		"parameters" : 		{
			"obj-2" : [ "live.gain~", "live.gain~", 0 ]
		}
,
		"dependency_cache" : [ 			{
				"name" : "voice.maxpat",
				"bootpath" : "~/Documents/workspace/ThreeDeeSynth/max",
				"type" : "JSON",
				"implicit" : 1
			}
, 			{
				"name" : "panner.maxpat",
				"bootpath" : "~/Documents/workspace/ThreeDeeSynth/max",
				"type" : "JSON",
				"implicit" : 1
			}
, 			{
				"name" : "pfftLeft.maxpat",
				"bootpath" : "~/Documents/workspace/ThreeDeeSynth/max",
				"type" : "JSON",
				"implicit" : 1
			}
, 			{
				"name" : "pfftRight.maxpat",
				"bootpath" : "~/Documents/workspace/ThreeDeeSynth/max",
				"type" : "JSON",
				"implicit" : 1
			}
 ],
		"autosave" : 0
	}

}
