{
	"patcher" : 	{
		"fileversion" : 1,
		"appversion" : 		{
			"major" : 7,
			"minor" : 3,
			"revision" : 1,
			"architecture" : "x64",
			"modernui" : 1
		}
,
		"rect" : [ 185.0, 88.0, 549.0, 683.0 ],
		"bglocked" : 0,
		"openinpresentation" : 0,
		"default_fontsize" : 12.0,
		"default_fontface" : 0,
		"default_fontname" : "Arial",
		"gridonopen" : 1,
		"gridsize" : [ 15.0, 15.0 ],
		"gridsnaponopen" : 1,
		"objectsnaponopen" : 1,
		"statusbarvisible" : 2,
		"toolbarvisible" : 1,
		"lefttoolbarpinned" : 0,
		"toptoolbarpinned" : 0,
		"righttoolbarpinned" : 0,
		"bottomtoolbarpinned" : 0,
		"toolbars_unpinned_last_save" : 0,
		"tallnewobj" : 0,
		"boxanimatetime" : 200,
		"enablehscroll" : 1,
		"enablevscroll" : 1,
		"devicewidth" : 0.0,
		"description" : "",
		"digest" : "",
		"tags" : "",
		"style" : "",
		"subpatcher_template" : "",
		"boxes" : [ 			{
				"box" : 				{
					"id" : "obj-3",
					"maxclass" : "newobj",
					"numinlets" : 2,
					"numoutlets" : 1,
					"outlettype" : [ "float" ],
					"patching_rect" : [ 138.5, 753.5, 34.0, 22.0 ],
					"style" : "",
					"text" : "/ 73."
				}

			}
, 			{
				"box" : 				{
					"id" : "obj-106",
					"maxclass" : "message",
					"numinlets" : 2,
					"numoutlets" : 1,
					"outlettype" : [ "" ],
					"patching_rect" : [ 26.0, 905.5, 50.0, 22.0 ],
					"style" : "",
					"text" : "32"
				}

			}
, 			{
				"box" : 				{
					"id" : "obj-178",
					"maxclass" : "message",
					"numinlets" : 2,
					"numoutlets" : 1,
					"outlettype" : [ "" ],
					"patching_rect" : [ 232.0, 771.5, 80.0, 22.0 ],
					"style" : "",
					"text" : "405.405405"
				}

			}
, 			{
				"box" : 				{
					"format" : 6,
					"id" : "obj-4",
					"maxclass" : "flonum",
					"maximum" : 20000.0,
					"minimum" : 0.0,
					"numinlets" : 1,
					"numoutlets" : 2,
					"outlettype" : [ "", "bang" ],
					"parameter_enable" : 0,
					"patching_rect" : [ 115.0, 494.0, 148.0, 22.0 ],
					"presentation" : 1,
					"presentation_rect" : [ 209.0, 336.0, 53.0, 22.0 ],
					"style" : ""
				}

			}
, 			{
				"box" : 				{
					"id" : "obj-5",
					"maxclass" : "comment",
					"numinlets" : 1,
					"numoutlets" : 0,
					"patching_rect" : [ 115.0, 466.0, 143.0, 20.0 ],
					"presentation" : 1,
					"presentation_linecount" : 3,
					"presentation_rect" : [ 209.0, 314.0, 55.0, 47.0 ],
					"style" : "",
					"text" : "Azimuth Period (ms)"
				}

			}
, 			{
				"box" : 				{
					"floatoutput" : 1,
					"id" : "obj-7",
					"maxclass" : "dial",
					"numinlets" : 1,
					"numoutlets" : 1,
					"outlettype" : [ "float" ],
					"parameter_enable" : 0,
					"patching_rect" : [ 115.0, 539.0, 148.0, 148.0 ],
					"presentation" : 1,
					"presentation_rect" : [ 209.0, 360.0, 53.0, 53.0 ],
					"size" : 10000.0,
					"style" : ""
				}

			}
, 			{
				"box" : 				{
					"id" : "obj-8",
					"linecount" : 3,
					"maxclass" : "comment",
					"numinlets" : 1,
					"numoutlets" : 0,
					"patching_rect" : [ 32.0, 656.0, 78.0, 47.0 ],
					"style" : "",
					"text" : "Circular rotation On/Off"
				}

			}
, 			{
				"box" : 				{
					"id" : "obj-9",
					"maxclass" : "toggle",
					"numinlets" : 1,
					"numoutlets" : 1,
					"outlettype" : [ "int" ],
					"parameter_enable" : 0,
					"patching_rect" : [ 80.0, 710.0, 24.0, 24.0 ],
					"style" : ""
				}

			}
, 			{
				"box" : 				{
					"id" : "obj-12",
					"maxclass" : "comment",
					"numinlets" : 1,
					"numoutlets" : 0,
					"patching_rect" : [ 141.0, 689.0, 195.0, 20.0 ],
					"style" : "",
					"text" : "Azimuth and Elevation Circular"
				}

			}
, 			{
				"box" : 				{
					"id" : "obj-13",
					"maxclass" : "newobj",
					"numinlets" : 1,
					"numoutlets" : 0,
					"patching_rect" : [ 112.0, 889.0, 107.0, 22.0 ],
					"style" : "",
					"text" : "send tuneAzimuth"
				}

			}
, 			{
				"box" : 				{
					"id" : "obj-14",
					"maxclass" : "newobj",
					"numinlets" : 5,
					"numoutlets" : 4,
					"outlettype" : [ "int", "", "", "int" ],
					"patching_rect" : [ 112.0, 844.0, 87.0, 22.0 ],
					"style" : "",
					"text" : "counter 1 0 73"
				}

			}
, 			{
				"box" : 				{
					"id" : "obj-16",
					"maxclass" : "newobj",
					"numinlets" : 5,
					"numoutlets" : 4,
					"outlettype" : [ "int", "", "", "int" ],
					"patching_rect" : [ 232.0, 844.0, 74.0, 22.0 ],
					"style" : "",
					"text" : "counter 128"
				}

			}
, 			{
				"box" : 				{
					"id" : "obj-17",
					"maxclass" : "newobj",
					"numinlets" : 2,
					"numoutlets" : 1,
					"outlettype" : [ "bang" ],
					"patching_rect" : [ 112.0, 799.0, 65.0, 22.0 ],
					"style" : "",
					"text" : "metro 500"
				}

			}
, 			{
				"box" : 				{
					"id" : "obj-23",
					"maxclass" : "newobj",
					"numinlets" : 5,
					"numoutlets" : 5,
					"outlettype" : [ "float", "", "", "", "" ],
					"patching_rect" : [ 383.0, 512.833374, 69.0, 22.0 ],
					"style" : "",
					"text" : "JamesLFO"
				}

			}
, 			{
				"box" : 				{
					"id" : "obj-27",
					"maxclass" : "comment",
					"numinlets" : 1,
					"numoutlets" : 0,
					"patching_rect" : [ 566.0, 24.0, 150.0, 20.0 ],
					"style" : "",
					"text" : "synced rate"
				}

			}
, 			{
				"box" : 				{
					"id" : "obj-1",
					"maxclass" : "newobj",
					"numinlets" : 1,
					"numoutlets" : 1,
					"outlettype" : [ "" ],
					"patching_rect" : [ 75.0, 149.0, 72.0, 22.0 ],
					"style" : "",
					"text" : "loadmess 0"
				}

			}
, 			{
				"box" : 				{
					"format" : 6,
					"id" : "obj-6",
					"maxclass" : "flonum",
					"numinlets" : 1,
					"numoutlets" : 2,
					"outlettype" : [ "", "bang" ],
					"parameter_enable" : 0,
					"patching_rect" : [ 540.0, 148.0, 148.0, 22.0 ],
					"presentation" : 1,
					"presentation_rect" : [ 300.0, 306.0, 53.0, 22.0 ],
					"style" : ""
				}

			}
, 			{
				"box" : 				{
					"id" : "obj-46",
					"maxclass" : "comment",
					"numinlets" : 1,
					"numoutlets" : 0,
					"patching_rect" : [ 721.0, 118.0, 150.0, 20.0 ],
					"presentation" : 1,
					"presentation_rect" : [ 90.0, 338.0, 83.0, 20.0 ],
					"style" : "",
					"text" : "Destination"
				}

			}
, 			{
				"box" : 				{
					"id" : "obj-15",
					"items" : [ "Azimuth", ",", "Elevation" ],
					"maxclass" : "umenu",
					"numinlets" : 1,
					"numoutlets" : 3,
					"outlettype" : [ "int", "", "" ],
					"parameter_enable" : 0,
					"patching_rect" : [ 721.0, 148.0, 100.0, 22.0 ],
					"presentation" : 1,
					"presentation_rect" : [ 90.0, 360.0, 83.0, 22.0 ],
					"style" : ""
				}

			}
, 			{
				"box" : 				{
					"id" : "obj-66",
					"maxclass" : "comment",
					"numinlets" : 1,
					"numoutlets" : 0,
					"patching_rect" : [ 540.0, 120.0, 150.0, 20.0 ],
					"presentation" : 1,
					"presentation_rect" : [ 300.0, 284.0, 53.0, 20.0 ],
					"style" : "",
					"text" : "Offset"
				}

			}
, 			{
				"box" : 				{
					"floatoutput" : 1,
					"id" : "obj-64",
					"maxclass" : "dial",
					"numinlets" : 1,
					"numoutlets" : 1,
					"outlettype" : [ "float" ],
					"parameter_enable" : 0,
					"patching_rect" : [ 540.0, 184.5, 148.0, 148.0 ],
					"presentation" : 1,
					"presentation_rect" : [ 300.0, 330.0, 53.0, 53.0 ],
					"size" : 2.0,
					"style" : ""
				}

			}
, 			{
				"box" : 				{
					"format" : 6,
					"id" : "obj-62",
					"maxclass" : "flonum",
					"maximum" : 1.0,
					"minimum" : 0.0,
					"numinlets" : 1,
					"numoutlets" : 2,
					"outlettype" : [ "", "bang" ],
					"parameter_enable" : 0,
					"patching_rect" : [ 357.5, 148.0, 148.0, 22.0 ],
					"presentation" : 1,
					"presentation_rect" : [ 239.5, 306.0, 53.0, 22.0 ],
					"style" : ""
				}

			}
, 			{
				"box" : 				{
					"format" : 6,
					"id" : "obj-60",
					"maxclass" : "flonum",
					"maximum" : 20000.0,
					"minimum" : 0.0,
					"numinlets" : 1,
					"numoutlets" : 2,
					"outlettype" : [ "", "bang" ],
					"parameter_enable" : 0,
					"patching_rect" : [ 179.0, 148.0, 148.0, 22.0 ],
					"presentation" : 1,
					"presentation_rect" : [ 179.0, 306.0, 53.0, 22.0 ],
					"style" : ""
				}

			}
, 			{
				"box" : 				{
					"fontname" : "Univia Pro Regular",
					"id" : "obj-51",
					"items" : [ "sine", ",", "triangle", ",", "sawtooth", ",", "rectangle", ",", "pink", ",", "white" ],
					"maxclass" : "umenu",
					"numinlets" : 1,
					"numoutlets" : 3,
					"outlettype" : [ "int", "", "" ],
					"parameter_enable" : 0,
					"patching_rect" : [ 75.0, 179.0, 78.0, 20.0 ],
					"presentation" : 1,
					"presentation_rect" : [ 90.0, 306.0, 83.0, 20.0 ],
					"style" : ""
				}

			}
, 			{
				"box" : 				{
					"id" : "obj-49",
					"maxclass" : "comment",
					"numinlets" : 1,
					"numoutlets" : 0,
					"patching_rect" : [ 75.0, 121.0, 78.0, 20.0 ],
					"presentation" : 1,
					"presentation_rect" : [ 90.0, 284.0, 83.0, 20.0 ],
					"style" : "",
					"text" : "source"
				}

			}
, 			{
				"box" : 				{
					"id" : "obj-10",
					"maxclass" : "comment",
					"numinlets" : 1,
					"numoutlets" : 0,
					"patching_rect" : [ 357.5, 120.0, 143.0, 20.0 ],
					"presentation" : 1,
					"presentation_rect" : [ 239.5, 284.0, 53.0, 20.0 ],
					"style" : "",
					"text" : "Depth"
				}

			}
, 			{
				"box" : 				{
					"floatoutput" : 1,
					"id" : "obj-11",
					"maxclass" : "dial",
					"numinlets" : 1,
					"numoutlets" : 1,
					"outlettype" : [ "float" ],
					"parameter_enable" : 0,
					"patching_rect" : [ 357.5, 184.5, 148.0, 148.0 ],
					"presentation" : 1,
					"presentation_rect" : [ 239.5, 330.0, 53.0, 53.0 ],
					"size" : 2.0,
					"style" : ""
				}

			}
, 			{
				"box" : 				{
					"id" : "obj-2",
					"maxclass" : "comment",
					"numinlets" : 1,
					"numoutlets" : 0,
					"patching_rect" : [ 179.0, 120.0, 143.0, 20.0 ],
					"presentation" : 1,
					"presentation_rect" : [ 179.0, 284.0, 53.0, 20.0 ],
					"style" : "",
					"text" : "Rate"
				}

			}
, 			{
				"box" : 				{
					"floatoutput" : 1,
					"id" : "obj-76",
					"maxclass" : "dial",
					"numinlets" : 1,
					"numoutlets" : 1,
					"outlettype" : [ "float" ],
					"parameter_enable" : 0,
					"patching_rect" : [ 179.0, 184.5, 148.0, 148.0 ],
					"presentation" : 1,
					"presentation_rect" : [ 179.0, 330.0, 53.0, 53.0 ],
					"size" : 10.0,
					"style" : ""
				}

			}
 ],
		"lines" : [ 			{
				"patchline" : 				{
					"destination" : [ "obj-51", 0 ],
					"disabled" : 0,
					"hidden" : 0,
					"source" : [ "obj-1", 0 ]
				}

			}
, 			{
				"patchline" : 				{
					"destination" : [ "obj-23", 2 ],
					"disabled" : 0,
					"hidden" : 0,
					"midpoints" : [ 367.0, 422.166687, 417.5, 422.166687 ],
					"source" : [ "obj-11", 0 ]
				}

			}
, 			{
				"patchline" : 				{
					"destination" : [ "obj-106", 1 ],
					"disabled" : 0,
					"hidden" : 0,
					"source" : [ "obj-14", 0 ]
				}

			}
, 			{
				"patchline" : 				{
					"destination" : [ "obj-13", 0 ],
					"disabled" : 0,
					"hidden" : 0,
					"source" : [ "obj-14", 0 ]
				}

			}
, 			{
				"patchline" : 				{
					"destination" : [ "obj-23", 4 ],
					"disabled" : 0,
					"hidden" : 0,
					"midpoints" : [ 730.5, 355.916687, 442.5, 355.916687 ],
					"source" : [ "obj-15", 0 ]
				}

			}
, 			{
				"patchline" : 				{
					"destination" : [ "obj-14", 0 ],
					"disabled" : 0,
					"hidden" : 0,
					"source" : [ "obj-17", 0 ]
				}

			}
, 			{
				"patchline" : 				{
					"destination" : [ "obj-16", 0 ],
					"disabled" : 0,
					"hidden" : 0,
					"source" : [ "obj-17", 0 ]
				}

			}
, 			{
				"patchline" : 				{
					"destination" : [ "obj-17", 1 ],
					"disabled" : 0,
					"hidden" : 0,
					"source" : [ "obj-3", 0 ]
				}

			}
, 			{
				"patchline" : 				{
					"destination" : [ "obj-7", 0 ],
					"disabled" : 0,
					"hidden" : 0,
					"source" : [ "obj-4", 0 ]
				}

			}
, 			{
				"patchline" : 				{
					"destination" : [ "obj-23", 0 ],
					"disabled" : 0,
					"hidden" : 0,
					"midpoints" : [ 84.5, 355.416687, 392.5, 355.416687 ],
					"source" : [ "obj-51", 0 ]
				}

			}
, 			{
				"patchline" : 				{
					"destination" : [ "obj-64", 0 ],
					"disabled" : 0,
					"hidden" : 0,
					"source" : [ "obj-6", 0 ]
				}

			}
, 			{
				"patchline" : 				{
					"destination" : [ "obj-76", 0 ],
					"disabled" : 0,
					"hidden" : 0,
					"source" : [ "obj-60", 0 ]
				}

			}
, 			{
				"patchline" : 				{
					"destination" : [ "obj-11", 0 ],
					"disabled" : 0,
					"hidden" : 0,
					"source" : [ "obj-62", 0 ]
				}

			}
, 			{
				"patchline" : 				{
					"destination" : [ "obj-23", 3 ],
					"disabled" : 0,
					"hidden" : 0,
					"midpoints" : [ 549.5, 422.166687, 430.0, 422.166687 ],
					"source" : [ "obj-64", 0 ]
				}

			}
, 			{
				"patchline" : 				{
					"destination" : [ "obj-178", 1 ],
					"disabled" : 0,
					"hidden" : 0,
					"source" : [ "obj-7", 0 ]
				}

			}
, 			{
				"patchline" : 				{
					"destination" : [ "obj-3", 0 ],
					"disabled" : 0,
					"hidden" : 0,
					"source" : [ "obj-7", 0 ]
				}

			}
, 			{
				"patchline" : 				{
					"destination" : [ "obj-23", 1 ],
					"disabled" : 0,
					"hidden" : 0,
					"midpoints" : [ 188.5, 422.166687, 405.0, 422.166687 ],
					"source" : [ "obj-76", 0 ]
				}

			}
, 			{
				"patchline" : 				{
					"destination" : [ "obj-17", 0 ],
					"disabled" : 0,
					"hidden" : 0,
					"source" : [ "obj-9", 0 ]
				}

			}
 ],
		"dependency_cache" : [ 			{
				"name" : "JamesLFO.maxpat",
				"bootpath" : "~/Documents/workspace2/ThreeDeeSynth/max",
				"type" : "JSON",
				"implicit" : 1
			}
 ],
		"autosave" : 0
	}

}
